SplineFontDB: 3.0
FontName: Inconsolata
FullName: Inconsolata
FamilyName: Inconsolata
Weight: Medium
Copyright: Created by Raph Levien using his own tools and FontForge. Copyright 2006 Raph Levien. Released under the SIL Open Font License, http://scripts.sil.org/OFL.
UComments: "2005-8-26: Created." 
Version: 001.010
ItalicAngle: 0
UnderlinePosition: -100
UnderlineWidth: 50
Ascent: 820
Descent: 180
LayerCount: 2
Layer: 0 0 "Back"  1
Layer: 1 0 "Fore"  0
NeedsXUIDChange: 1
XUID: [1021 77 1780377399 11264577]
FSType: 8
OS2Version: 0
OS2_WeightWidthSlopeOnly: 0
OS2_UseTypoMetrics: 0
CreationTime: 1161020814
ModificationTime: 1269899031
PfmFamily: 17
TTFWeight: 500
TTFWidth: 5
LineGap: 200
VLineGap: 0
Panose: 2 11 6 9 3 0 3 0 0 0
OS2TypoAscent: 0
OS2TypoAOffset: 1
OS2TypoDescent: 0
OS2TypoDOffset: 1
OS2TypoLinegap: 0
OS2WinAscent: 0
OS2WinAOffset: 1
OS2WinDescent: 0
OS2WinDOffset: 1
HheadAscent: 0
HheadAOffset: 1
HheadDescent: 0
HheadDOffset: 1
OS2Vendor: 'PfEd'
DEI: 91125
LangName: 1033 
Encoding: Custom
UnicodeInterp: none
NameList: Adobe Glyph List
DisplaySize: -36
AntiAlias: 1
FitToEm: 1
WinInfo: 144 16 14
Grid
168 917 m 25
 406.5 917 l 25
EndSplineSet
TeXData: 1 0 0 629145 314572 209715 554697 1048576 209715 783286 444596 497025 792723 393216 433062 380633 303038 157286 324010 404750 52429 2506097 1059062 262144
BeginChars: 359 294

StartChar: a
Encoding: 97 97 0
Width: 600
Flags: HMW
TeX: 97 0
LayerCount: 2
Fore
SplineSet
115 467 m 0
 164 518 233 541 304 541 c 0
 386 541 453 511 488 453 c 0
 512 412 514 371 514 328 c 0
 514 0 l 0
 435 0 l 0
 435 58 l 0
 377 11 310 -12 245 -12 c 0
 134 -12 67 59 67 137 c 0
 67 196 105 257 188 288 c 0
 251 311 327 312 400 312 c 0
 405 312 411 312 417 312 c 0
 434 312 l 0
 434 331 l 0
 434 359 434 393 417 422 c 0
 402 447 371 473 308 473 c 0
 259 473 199 459 156 414 c 0
 115 467 l 0
437 248 m 0
 418 248 l 0
 399 248 377 248 356 248 c 0
 316 248 275 247 244 240 c 0
 178 224 151 181 151 142 c 0
 151 95 192 51 262 51 c 0
 331 51 382 93 401 113 c 0
 437 151 437 186 437 213 c 0
 437 248 l 0
EndSplineSet
EndChar

StartChar: c
Encoding: 99 99 1
Width: 600
Flags: HMW
TeX: 99 0
LayerCount: 2
Fore
SplineSet
539 442 m 0
 480 373 l 0
 471 380 477 391 473 400 c 0
 470 406 426 469 336 469 c 0
 239 469 161 394 161 273 c 0
 161 149 240 63 343 63 c 0
 396 63 447 86 483 127 c 0
 531 71 l 0
 481 17 410 -12 336 -12 c 0
 186 -12 75 105 75 265 c 0
 75 423 185 540 341 540 c 0
 426 540 497 503 539 442 c 0
EndSplineSet
EndChar

StartChar: m
Encoding: 109 109 2
Width: 600
Flags: HMW
TeX: 109 0
LayerCount: 2
Fore
SplineSet
54 0 m 0
 54 529 l 0
 131 529 l 0
 131 477 l 0
 155 514 195 542 238 542 c 0
 286 542 324 509 332 465 c 0
 353 512 400 542 451 542 c 0
 480 542 513 531 533 500 c 0
 554 470 555 433 555 395 c 0
 555 389 555 382 555 376 c 0
 555 0 l 0
 476 0 l 0
 476 375 l 0
 476 384 476 394 476 404 c 0
 476 421 475 438 469 452 c 0
 460 471 444 481 427 481 c 0
 395 481 374 448 365 433 c 0
 346 401 343 378 343 350 c 0
 343 0 l 0
 265 0 l 0
 265 368 l 0
 265 376 265 384 265 393 c 0
 265 408 264 423 260 438 c 0
 251 467 230 478 211 478 c 0
 190 478 166 464 147 429 c 0
 132 401 130 378 130 353 c 0
 130 0 l 0
 54 0 l 0
EndSplineSet
EndChar

StartChar: s
Encoding: 115 115 3
Width: 600
Flags: HMW
TeX: 115 0
LayerCount: 2
Fore
SplineSet
511 459 m 0
 462 386 l 0
 460 386 456 388 456 395 c 0
 456 399 457 402 453 406 c 0
 433 432 382 479 307 479 c 0
 247 479 195 449 195 407 c 0
 195 389 204 363 247 342 c 0
 297 319 382 307 442 273 c 0
 505 238 520 190 520 153 c 0
 520 73 444 -12 299 -12 c 0
 219 -12 138 14 76 72 c 0
 124 155 l 0
 130 152 129 146 129 144 c 0
 129 139 128 136 132 132 c 0
 149 113 207 58 298 58 c 0
 374 58 434 92 434 142 c 0
 434 161 425 189 381 209 c 0
 342 227 284 242 239 258 c 0
 210 268 110 302 110 394 c 0
 110 473 191 542 313 542 c 0
 392 542 462 513 511 459 c 0
EndSplineSet
Validated: 1
EndChar

StartChar: I
Encoding: 73 73 4
Width: 600
Flags: HMW
TeX: 73 0
LayerCount: 2
Fore
SplineSet
112 722 m 0
 470 722 l 0
 470 654 l 0
 327 654 l 0
 327 66 l 0
 477 66 l 0
 477 0 l 0
 104 0 l 0
 104 67 l 0
 246 67 l 0
 246 654 l 0
 112 654 l 0
 112 722 l 0
EndSplineSet
EndChar

StartChar: o
Encoding: 111 111 5
Width: 600
Flags: HMW
TeX: 111 0
LayerCount: 2
Fore
SplineSet
543 262 m 0
 543 87 430 -12 305 -12 c 0
 172 -12 57 100 57 261 c 0
 57 424 173 541 307 541 c 0
 428 541 543 445 543 262 c 0
302 470 m 0
 221 470 145 398 145 268 c 0
 145 137 221 58 306 58 c 0
 383 58 459 126 459 259 c 0
 459 404 378 470 302 470 c 0
EndSplineSet
EndChar

StartChar: n
Encoding: 110 110 6
Width: 600
Flags: HMW
TeX: 110 0
LayerCount: 2
Fore
SplineSet
89 0 m 0
 89 529 l 0
 174 529 l 0
 174 436 l 0
 213 495 278 542 350 542 c 0
 410 542 465 508 491 449 c 0
 510 406 510 362 510 321 c 0
 510 321 l 0
 510 0 l 0
 428 0 l 0
 428 319 l 0
 428 356 428 402 399 436 c 0
 380 459 354 470 327 470 c 0
 271 470 220 423 200 396 c 0
 178 367 174 341 174 305 c 0
 174 0 l 0
 89 0 l 0
EndSplineSet
Validated: 5
EndChar

StartChar: l
Encoding: 108 108 7
Width: 600
Flags: HMW
TeX: 108 0
LayerCount: 2
Fore
SplineSet
108 770 m 0
 342 770 l 0
 342 67 l 0
 498 67 l 0
 498 0 l 0
 101 0 l 0
 101 67 l 0
 258 67 l 0
 258 703 l 0
 108 703 l 0
 108 770 l 0
EndSplineSet
Validated: 1
EndChar

StartChar: t
Encoding: 116 116 8
Width: 600
Flags: HMW
TeX: 116 0
LayerCount: 2
Fore
SplineSet
228 671 m 0
 319 686 l 0
 320 684 320 682 320 680 c 0
 320 671 314 665 312 655 c 0
 307 625 299 529 299 529 c 0
 472 529 l 0
 472 461 l 0
 298 461 l 0
 291 392 288 323 288 254 c 0
 288 177 291 157 291 152 c 0
 300 89 341 67 380 67 c 0
 413 67 454 82 499 115 c 0
 525 49 l 0
 480 16 419 -12 356 -12 c 0
 302 -12 260 11 235 46 c 0
 204 90 204 143 204 190 c 0
 204 280 215 370 215 461 c 0
 92 461 l 0
 92 529 l 0
 218 529 l 0
 228 671 l 0
EndSplineSet
EndChar

StartChar: e
Encoding: 101 101 9
Width: 600
Flags: HMW
TeX: 101 0
LayerCount: 2
Fore
SplineSet
310 542 m 0
 396 542 495 496 519 354 c 0
 523 334 525 313 525 291 c 0
 525 279 523 266 523 253 c 1
 147 253 l 1
 147 94 256 55 327 55 c 0
 380 55 429 76 464 115 c 1
 510 70 l 1
 465 16 396 -12 320 -12 c 0
 177 -12 66 82 66 259 c 0
 66 452 183 542 310 542 c 0
150 317 m 1
 441 317 l 1
 442 323 442 329 442 335 c 0
 442 413 384 478 304 478 c 0
 247 478 166 442 150 317 c 1
EndSplineSet
EndChar

StartChar: b
Encoding: 98 98 11
Width: 600
Flags: HMW
TeX: 98 0
LayerCount: 2
Fore
SplineSet
79 770 m 0
 177 770 l 0
 179 763 173 760 171 758 c 0
 165 754 164 751 164 745 c 0
 164 448 l 0
 198 506 260 542 327 542 c 0
 431 542 540 456 540 271 c 0
 540 79 427 -12 319 -12 c 0
 255 -12 197 18 162 70 c 0
 133 0 l 0
 79 0 l 0
 79 770 l 0
298 470 m 0
 246 470 198 441 178 393 c 0
 166 364 164 330 164 282 c 0
 164 236 164 205 167 177 c 0
 181 76 261 62 297 62 c 0
 349 62 453 92 453 254 c 0
 453 441 348 470 298 470 c 0
EndSplineSet
EndChar

StartChar: H
Encoding: 72 72 12
Width: 600
Flags: HMW
TeX: 72 0
LayerCount: 2
Fore
SplineSet
73 722 m 0
 163 722 l 0
 164 720 164 719 164 717 c 0
 164 708 157 706 157 694 c 0
 157 413 l 0
 440 413 l 0
 440 722 l 0
 528 722 l 0
 529 721 529 719 529 717 c 0
 529 708 521 708 521 696 c 0
 521 0 l 0
 439 0 l 0
 439 344 l 0
 157 344 l 0
 157 0 l 0
 73 0 l 0
 73 722 l 0
EndSplineSet
EndChar

StartChar: g
Encoding: 103 103 13
Width: 600
Flags: HMW
TeX: 103 0
LayerCount: 2
Fore
SplineSet
156 364 m 0
 156 300 208 248 272 248 c 0
 337 248 389 300 389 364 c 0
 389 428 337 481 273 481 c 0
 208 481 156 428 156 364 c 0
278 547 m 0
 326 547 370 529 403 496 c 1
 440 527 487 544 535 544 c 0
 540 544 545 543 550 543 c 1
 560 475 l 1
 550 477 540 478 529 478 c 0
 497 478 465 469 437 452 c 1
 455 426 464 394 464 362 c 0
 464 265 378 181 273 181 c 0
 250 181 228 185 206 193 c 1
 201 189 168 162 168 134 c 0
 168 117 180 105 200 99 c 0
 212 96 236 92 276 92 c 0
 301 92 326 93 351 93 c 0
 387 93 423 91 455 77 c 0
 511 55 537 8 537 -38 c 0
 537 -109 473 -199 294 -199 c 0
 108 -199 54 -132 54 -74 c 0
 54 -32 84 7 141 43 c 1
 107 61 98 92 98 114 c 0
 98 148 120 184 158 216 c 1
 109 248 80 301 80 359 c 0
 80 463 172 547 278 547 c 0
197 28 m 1
 167 12 131 -16 131 -54 c 0
 131 -73 140 -102 183 -119 c 0
 223 -135 268 -136 292 -136 c 0
 328 -136 373 -134 411 -113 c 0
 448 -93 461 -66 461 -43 c 0
 461 -19 447 11 398 19 c 0
 382 21 364 21 345 21 c 0
 339 21 332 21 325 21 c 0
 312 21 299 22 286 22 c 0
 245 22 217 28 197 28 c 1
EndSplineSet
EndChar

StartChar: h
Encoding: 104 104 14
Width: 600
Flags: HMW
TeX: 104 0
LayerCount: 2
Fore
SplineSet
91 0 m 0
 91 770 l 0
 187 770 l 0
 187 769 188 768 188 767 c 0
 188 760 183 757 180 754 c 0
 176 750 176 747 176 743 c 0
 176 436 l 0
 215 495 280 542 352 542 c 0
 412 542 467 508 493 449 c 0
 512 406 512 362 512 321 c 0
 512 321 l 0
 512 0 l 0
 430 0 l 0
 430 319 l 0
 430 356 430 402 401 436 c 0
 382 459 356 470 329 470 c 0
 273 470 222 423 202 396 c 0
 180 367 176 341 176 305 c 0
 176 0 l 0
 91 0 l 0
EndSplineSet
Validated: 5
EndChar

StartChar: u
Encoding: 117 117 15
Width: 600
Flags: HMW
TeX: 117 0
LayerCount: 2
Fore
SplineSet
83 529 m 0
 167 529 l 0
 167 234 l 0
 167 198 167 157 186 120 c 0
 207 78 245 55 287 55 c 0
 338 55 385 89 409 133 c 0
 427 166 430 197 430 238 c 0
 430 529 l 0
 514 529 l 0
 514 48 l 0
 514 32 515 16 520 0 c 0
 432 0 l 0
 431 7 430.75 13.75 430.75 20.5 c 0
 430.75 27.25 431 34 431 41 c 0
 431 81 l 0
 397 23 334 -12 268 -12 c 0
 199 -12 134 25 103 95 c 0
 82 141 82 188 82 234 c 0
 83 529 l 0
EndSplineSet
EndChar

StartChar: r
Encoding: 114 114 16
Width: 600
Flags: HMW
TeX: 114 0
LayerCount: 2
Fore
SplineSet
125 529 m 0
 212 529 l 0
 212 427 l 0
 247 503 322 542 400 542 c 0
 459 542 508 518 541 484 c 0
 502 404 l 0
 493 413 489 422 482 431 c 0
 467 450 439 470 395 470 c 0
 358 470 294 457 246 381 c 0
 210 324 209 289 209 257 c 0
 209 0 l 0
 125 0 l 0
 125 529 l 0
EndSplineSet
EndChar

StartChar: i
Encoding: 105 105 17
Width: 600
Flags: HMW
TeX: 105 0
LayerCount: 2
Fore
SplineSet
133 529 m 0
 345 529 l 0
 345 67 l 0
 469 67 l 0
 469 0 l 0
 126 0 l 0
 126 67 l 0
 261 67 l 0
 261 462 l 0
 133 462 l 0
 133 529 l 0
305 760 m 0
 338 760 365 733 365 700 c 0
 365 668 338 641 305 641 c 0
 272 641 245 668 245 700 c 0
 245 733 272 760 305 760 c 0
EndSplineSet
EndChar

StartChar: f
Encoding: 102 102 18
Width: 600
Flags: HMW
TeX: 102 0
LayerCount: 2
Fore
SplineSet
408 777 m 0
 475 777 532 751 570 705 c 1
 532 628 l 1
 528 628 523 630 523 638 c 0
 522 643 523 646 519 651 c 0
 497 685 455 712 404 712 c 0
 360 712 319 692 297 653 c 0
 279 621 278 584 278 549 c 0
 278 546 278 542 278 539 c 2
 278 498 l 1
 451 498 l 1
 451 432 l 1
 278 432 l 1
 278 0 l 1
 198 0 l 1
 198 432 l 1
 83 432 l 1
 83 498 l 1
 198 498 l 1
 198 550 l 2
 198 597 200 641 227 685 c 0
 264 745 334 777 408 777 c 0
EndSplineSet
Validated: 1
EndChar

StartChar: v
Encoding: 118 118 19
Width: 600
Flags: HMW
TeX: 118 0
LayerCount: 2
Fore
SplineSet
56 529 m 0
 156 529 l 0
 158 520 152 514 152 507 c 0
 152 505 153 502 154 500 c 0
 307 113 l 0
 392 310 l 0
 422 379 450 452 464 529 c 0
 539 529 l 0
 521 448 492 372 460 298 c 0
 331 -4 l 0
 266 -4 l 0
 56 529 l 0
EndSplineSet
EndChar

StartChar: d
Encoding: 100 100 20
Width: 600
Flags: HMW
TeX: 100 0
LayerCount: 2
Fore
SplineSet
440 452 m 0
 440 770 l 0
 529 770 l 0
 529 762 525 757 523 754 c 0
 519 747 518 744 518 738 c 0
 518 49 l 0
 518 33 520 16 524 0 c 0
 441 0 l 0
 437 13 436 26 436 39 c 0
 436 85 l 0
 403 26 340 -12 273 -12 c 0
 170 -12 62 74 62 269 c 0
 62 471 184 543 285 543 c 0
 358 543 415 506 440 452 c 0
289 475 m 0
 228 475 143 433 143 283 c 0
 143 108 232 62 292 62 c 0
 347 62 402 99 422 162 c 0
 431 189 433 219 433 259 c 0
 433 318 431 347 424 372 c 0
 403 450 335 475 289 475 c 0
EndSplineSet
EndChar

StartChar: p
Encoding: 112 112 21
Width: 600
Flags: HMW
TeX: 112 0
LayerCount: 2
Fore
SplineSet
79 529 m 0
 164 529 l 0
 164 448 l 0
 200 506 263 541 331 541 c 0
 435 541 546 458 546 271 c 0
 546 77 432 -12 324 -12 c 0
 260 -12 200 18 165 70 c 0
 165 -193 l 0
 80 -193 l 0
 79 529 l 0
301 470 m 0
 247 470 198 441 178 393 c 0
 166 366 164 334 164 289 c 0
 164 212 164 169 179 133 c 0
 200 85 250 60 300 60 c 0
 350 60 459 87 459 253 c 0
 459 446 347 470 301 470 c 0
EndSplineSet
EndChar

StartChar: q
Encoding: 113 113 22
Width: 600
Flags: HMW
TeX: 113 0
LayerCount: 2
Fore
SplineSet
443 452 m 0
 443 529 l 0
 522 529 l 0
 522 -193 l 0
 439 -193 l 0
 439 85 l 0
 406 26 344 -12 277 -12 c 0
 160 -12 59 98 59 270 c 0
 59 450 173 543 289 543 c 0
 406 543 443 452 443 452 c 0
292 475 m 0
 221 475 143 420 143 282 c 0
 143 132 220 62 295 62 c 0
 350 62 405 99 425 162 c 0
 434 189 436 219 436 258 c 0
 436 322 434 356 423 385 c 0
 400 450 339 475 292 475 c 0
EndSplineSet
Validated: 1
EndChar

StartChar: y
Encoding: 121 121 23
Width: 600
Flags: HMW
TeX: 121 0
LayerCount: 2
Fore
SplineSet
63 529 m 0
 167 529 l 0
 167 519 162 513 162 504 c 0
 162 501 163 498 164 495 c 0
 319 105 l 0
 420 389 l 0
 436 435 451 481 460 529 c 0
 547 529 l 0
 531 477 513 427 494 377 c 0
 329 -60 l 0
 318 -90 307 -118 283 -144 c 0
 248 -184 199 -201 151 -201 c 0
 107 -201 67 -186 36 -157 c 0
 79 -82 l 0
 86 -87 85 -95 88 -101 c 0
 91 -106 111 -133 150 -133 c 0
 175 -133 202 -122 224 -98 c 0
 241 -81 252 -58 261 -37 c 0
 278 0 l 0
 63 529 l 0
EndSplineSet
EndChar

StartChar: period
Encoding: 46 46 24
Width: 600
Flags: HMW
TeX: 112 0
LayerCount: 2
Fore
SplineSet
355 53 m 0
 355 17 325 -13 286 -13 c 0
 248 -13 218 17 218 54 c 0
 218 90 248 120 286 120 c 0
 325 120 355 90 355 53 c 0
EndSplineSet
Validated: 1
EndChar

StartChar: comma
Encoding: 44 44 25
Width: 600
Flags: HMW
TeX: 99 0
LayerCount: 2
Fore
SplineSet
364 23 m 0
 364 -37 322 -113 241 -195 c 0
 201 -160 l 0
 228 -135 248 -107 259 -88 c 0
 265 -79 276 -59 276 -40 c 0
 276 -16 259 -5 249 2 c 0
 239 8 217 22 217 53 c 0
 217 88 246 119 284 119 c 0
 325 119 364 82 364 23 c 0
EndSplineSet
Validated: 1
EndChar

StartChar: plus
Encoding: 43 43 28
Width: 600
Flags: HMW
TeX: 112 0
LayerCount: 2
Fore
SplineSet
267 606 m 5
 340 606 l 5
 340 408 l 5
 538 408 l 5
 538 337 l 5
 340 337 l 5
 340 120 l 5
 267 120 l 5
 267 337 l 5
 62 337 l 5
 62 408 l 5
 267 408 l 5
 267 606 l 5
EndSplineSet
Validated: 1
EndChar

StartChar: minus
Encoding: 256 8722 29
Width: 600
Flags: HMW
TeX: 104 0
LayerCount: 2
Fore
SplineSet
62 398 m 25
 538 398 l 25
 538 327 l 25
 62 327 l 25
 62 398 l 25
EndSplineSet
Validated: 1
EndChar

StartChar: underscore
Encoding: 95 95 31
Width: 600
Flags: HMW
TeX: 117 0
LayerCount: 2
Fore
SplineSet
50 -22 m 25
 550 -22 l 25
 550 -93 l 25
 50 -93 l 25
 50 -22 l 25
EndSplineSet
Validated: 1
EndChar

StartChar: less
Encoding: 60 60 32
Width: 600
Flags: HMW
TeX: 108 0
LayerCount: 2
Fore
SplineSet
541 575 m 25
 139 370 l 25
 544 142 l 25
 544 55 l 25
 50 343 l 25
 50 399 l 25
 541 657 l 25
 541 575 l 25
EndSplineSet
Validated: 1
EndChar

StartChar: greater
Encoding: 62 62 33
Width: 600
Flags: HMW
TeX: 103 0
LayerCount: 2
Fore
SplineSet
59 575 m 25
 59 657 l 25
 550 399 l 25
 550 343 l 25
 56 55 l 25
 56 142 l 25
 461 370 l 25
 59 575 l 25
EndSplineSet
Validated: 1
EndChar

StartChar: quotesingle
Encoding: 39 39 34
Width: 600
Flags: HMWO
TeX: 113 0
LayerCount: 2
Fore
SplineSet
380 701 m 0
 380 670 370 633 341 554 c 0
 313 477 l 0
 249 493 l 0
 274 571 l 0
 280 590 285 612 285 635 c 0
 285 660 278 683 278 709 c 0
 278 754 305 772 328 772 c 0
 350 772 380 753 380 701 c 0
EndSplineSet
Validated: 1
EndChar

StartChar: slash
Encoding: 47 47 36
Width: 600
Flags: HMW
TeX: 115 0
LayerCount: 2
Fore
SplineSet
84 -15 m 25
 447 770 l 25
 516 735 l 25
 152 -49 l 25
 84 -15 l 25
EndSplineSet
Validated: 1
EndChar

StartChar: backslash
Encoding: 92 92 37
Width: 600
Flags: HMW
TeX: 98 0
LayerCount: 2
Fore
SplineSet
516 -15 m 25
 448 -49 l 25
 84 735 l 25
 153 770 l 25
 516 -15 l 25
EndSplineSet
Validated: 1
EndChar

StartChar: micro
Encoding: 181 181 38
Width: 600
Flags: HMW
TeX: 117 0
LayerCount: 2
Fore
SplineSet
38 -193 m 0
 38 -59 61 87 61 234 c 0
 61 529 l 0
 137 529 l 0
 137 215 l 0
 137 180 138 147 154 115 c 0
 175 73 212 50 249 50 c 0
 291 50 332 79 352 126 c 0
 365 156 367 186 367 222 c 0
 367 529 l 0
 441 529 l 0
 441 134 l 0
 441 116 441 95 451 78 c 0
 459 62 473 55 487 55 c 0
 527 55 551 111 551 111 c 0
 582 52 l 0
 560 18 523 -12 480 -12 c 0
 431 -12 391 28 385 78 c 0
 358 23 303 -12 243 -12 c 0
 187 -12 135 19 111 70 c 0
 111 -18 110 -106 110 -193 c 0
 38 -193 l 0
EndSplineSet
EndChar

StartChar: braceleft
Encoding: 123 123 39
Width: 600
Flags: HMW
TeX: 98 0
LayerCount: 2
Fore
SplineSet
71 329 m 0
 94 329 l 0
 115 329 146 329 172 355 c 0
 199 384 202 425 202 453 c 0
 202 481 199 508 199 536 c 0
 199 580 205 645 256 692 c 0
 303 735 366 738 422 738 c 0
 431 738 439 738 448 738 c 0
 483 738 l 0
 483 672 l 0
 443 672 l 0
 426 672 411 673 397 673 c 0
 369 673 347 670 326 657 c 0
 281 629 279 573 279 549 c 0
 279 522 283 496 283 468 c 0
 283 441 280 406 264 375 c 0
 247 340 218 312 182 297 c 0
 226 282 280 238 280 117 c 0
 280 81 276 50 276 20 c 0
 276 -20 282 -71 324 -100 c 0
 350 -118 380 -119 417 -119 c 0
 424 -119 431 -119 439 -119 c 0
 482 -119 l 0
 482 -184 l 0
 440 -184 l 0
 428 -184 416 -184 404 -184 c 0
 348 -184 300 -181 259 -149 c 0
 198 -102 194 -23 194 19 c 0
 194 64 199 99 199 135 c 0
 199 185 191 219 168 241 c 0
 144 264 115 264 95 264 c 0
 71 264 l 0
 71 329 l 0
EndSplineSet
Validated: 1
EndChar

StartChar: braceright
Encoding: 125 125 40
Width: 600
Flags: HMW
TeX: 98 0
LayerCount: 2
Fore
SplineSet
529 329 m 0
 529 264 l 0
 505 264 l 0
 485 264 456 264 432 241 c 0
 409 219 401 185 401 135 c 0
 401 99 406 64 406 19 c 0
 406 -23 402 -102 341 -149 c 0
 300 -181 252 -184 196 -184 c 0
 184 -184 172 -184 160 -184 c 0
 118 -184 l 0
 118 -119 l 0
 161 -119 l 0
 169 -119 176 -119 183 -119 c 0
 220 -119 250 -118 276 -100 c 0
 318 -71 324 -20 324 20 c 0
 324 50 320 81 320 117 c 0
 320 238 374 282 418 297 c 0
 382 312 353 340 336 375 c 0
 320 406 317 441 317 468 c 0
 317 496 321 522 321 549 c 0
 321 573 319 629 274 657 c 0
 253 670 231 673 203 673 c 0
 189 673 174 672 157 672 c 0
 117 672 l 0
 117 738 l 0
 152 738 l 0
 161 738 169 738 178 738 c 0
 234 738 297 735 344 692 c 0
 395 645 401 580 401 536 c 0
 401 508 398 481 398 453 c 0
 398 425 401 384 428 355 c 0
 454 329 485 329 506 329 c 0
 529 329 l 0
EndSplineSet
Validated: 1
EndChar

StartChar: asterisk
Encoding: 42 42 41
Width: 600
Flags: HMW
TeX: 97 0
LayerCount: 2
Fore
SplineSet
257 601 m 0
 351 601 l 0
 349 587 345 584 344 570 c 0
 326 396 l 0
 510 480 l 0
 541 409 l 0
 342 349 l 0
 488 174 l 0
 425 124 l 0
 300 316 l 0
 170 123 l 0
 107 174 l 0
 258 348 l 0
 58 409 l 0
 88 484 l 0
 275 396 l 0
 257 601 l 0
EndSplineSet
Validated: 1
EndChar

StartChar: O
Encoding: 79 79 42
Width: 600
Flags: HMW
TeX: 79 0
LayerCount: 2
Fore
SplineSet
556 360 m 0
 556 296 551 206 513 129 c 0
 466 32 382 -12 304 -12 c 0
 194 -12 44 78 44 362 c 0
 44 646 196 730 304 730 c 0
 382 730 464 687 512 594 c 0
 551 517 556 427 556 360 c 0
300 654 m 0
 224 654 124 588 124 373 c 0
 124 143 224 68 305 68 c 0
 353 68 409 95 443 166 c 0
 472 228 475 302 475 349 c 0
 475 410 471 479 447 540 c 0
 413 624 352 654 300 654 c 0
EndSplineSet
EndChar

StartChar: zero
Encoding: 48 48 43
Width: 600
Flags: HMWO
TeX: 122 0
LayerCount: 2
Fore
SplineSet
301 727 m 0
 412 727 531 595 531 349 c 0
 531 101 407 -13 303 -13 c 0
 188 -13 68 122 68 355 c 0
 68 586 187 727 301 727 c 0
414 562 m 1
 383 626 340 656 300 656 c 0
 229 656 144 554 144 369 c 0
 144 318 150 273 160 233 c 1
 414 562 l 1
441 485 m 1
 187 159 l 1
 218 96 262 61 305 61 c 0
 369 61 456 138 456 339 c 0
 456 396 450 444 441 485 c 1
EndSplineSet
Validated: 1
EndChar

StartChar: one
Encoding: 49 49 44
Width: 600
Flags: HMW
TeX: 111 0
LayerCount: 2
Fore
SplineSet
357 723 m 0
 357 -1 l 0
 276 -1 l 0
 276 622 l 0
 131 579 l 0
 112 624 l 0
 301 723 l 0
 357 723 l 0
EndSplineSet
Validated: 1
EndChar

StartChar: two
Encoding: 50 50 45
Width: 600
Flags: HMW
TeX: 116 0
LayerCount: 2
Fore
SplineSet
100 610 m 0
 143 683 220 727 302 727 c 0
 420 727 512 637 512 524 c 0
 512 420 437 346 385 297 c 0
 332 248 248 176 188 71 c 0
 491 71 l 0
 496 71 499 72 503 76 c 0
 506 78 511 83 519 81 c 0
 519 0 l 0
 95 0 l 0
 95 51 l 0
 156 171 222 245 305 320 c 0
 357 367 431 430 431 518 c 0
 431 596 369 655 293 655 c 0
 229 655 186 616 169 590 c 0
 163 580 166 573 159 563 c 0
 100 610 l 0
EndSplineSet
Validated: 1
EndChar

StartChar: N
Encoding: 78 78 46
Width: 600
Flags: HMW
TeX: 78 0
LayerCount: 2
Fore
SplineSet
68 0 m 0
 68 722 l 0
 147 722 l 0
 450 187 l 0
 450 722 l 0
 536 722 l 0
 537 715 534 711 533 708 c 0
 530 703 528 700 528 692 c 0
 528 0 l 0
 464 0 l 0
 146 568 l 0
 146 0 l 0
 68 0 l 0
EndSplineSet
EndChar

StartChar: four
Encoding: 52 52 47
Width: 600
Flags: HMW
TeX: 102 0
LayerCount: 2
Fore
SplineSet
373 723 m 0
 441 723 l 0
 441 271 l 0
 534 271 l 0
 534 199 l 0
 441 199 l 0
 441 0 l 0
 357 0 l 0
 357 200 l 0
 66 200 l 0
 66 260 l 0
 373 723 l 0
358 594 m 0
 146 271 l 0
 358 271 l 0
 358 594 l 0
EndSplineSet
Validated: 1
EndChar

StartChar: eight
Encoding: 56 56 48
Width: 600
Flags: HMW
TeX: 101 0
LayerCount: 2
Fore
SplineSet
309 731 m 0
 415 731 497 655 497 560 c 0
 497 491 452 423 382 386 c 0
 463 348 521 271 521 186 c 0
 521 76 426 -12 299 -12 c 0
 175 -12 80 74 80 182 c 0
 80 265 138 344 224 384 c 0
 159 417 114 482 114 553 c 0
 114 650 199 731 309 731 c 0
285 351 m 0
 216 322 163 261 163 192 c 0
 163 120 224 61 303 61 c 0
 380 61 439 118 439 187 c 0
 439 258 378 322 285 351 c 0
303 663 m 0
 240 663 192 617 192 560 c 0
 192 465 319 415 319 415 c 0
 375 445 418 499 418 555 c 0
 418 615 368 663 303 663 c 0
EndSplineSet
Validated: 1
EndChar

StartChar: five
Encoding: 53 53 49
Width: 600
Flags: HMW
TeX: 102 0
LayerCount: 2
Fore
SplineSet
133 722 m 0
 499 722 l 0
 499 649 l 0
 201 649 l 0
 190 441 l 0
 227 460 268 469 308 469 c 0
 429 469 526 383 526 228 c 0
 526 72 423 -13 298 -13 c 0
 212 -13 132 27 84 98 c 0
 156 152 l 0
 166 145 160 134 165 125 c 0
 169 117 219 58 297 58 c 0
 374 58 443 119 443 230 c 0
 443 345 371 402 295 402 c 0
 246 402 195 378 160 334 c 0
 108 355 l 0
 133 722 l 0
EndSplineSet
Validated: 1
EndChar

StartChar: S
Encoding: 83 83 50
Width: 600
Flags: HMW
TeX: 83 0
LayerCount: 2
Fore
SplineSet
514 636 m 0
 463 567 l 0
 460 568 457 570 457 576 c 0
 457 581 457 583 454 588 c 0
 426 628 375 659 307 659 c 0
 225 659 177 609 177 553 c 0
 177 524 190 481 251 446 c 0
 317 407 418 386 481 327 c 0
 526 285 537 234 537 197 c 0
 537 106 472 -12 297 -12 c 0
 208 -12 127 19 70 81 c 0
 118 164 l 0
 124 161 123 155 123 153 c 0
 123 148 123 145 127 141 c 0
 159 100 220 61 299 61 c 0
 404 61 457 129 457 192 c 0
 457 224 444 262 396 292 c 0
 342 326 237 351 171 400 c 0
 110 445 94 499 94 541 c 0
 94 640 183 726 314 726 c 0
 392 726 465 694 514 636 c 0
EndSplineSet
Validated: 1
EndChar

StartChar: M
Encoding: 77 77 51
Width: 600
Flags: HMW
TeX: 77 0
LayerCount: 2
Fore
SplineSet
57 722 m 0
 121 722 l 0
 300 369 l 0
 482 722 l 0
 543 722 l 0
 543 0 l 0
 466 0 l 0
 466 545 l 0
 310 254 l 0
 279 254 l 0
 133 541 l 0
 133 0 l 0
 57 0 l 0
 57 722 l 0
EndSplineSet
EndChar

StartChar: L
Encoding: 76 76 52
Width: 600
Flags: HMW
TeX: 76 0
LayerCount: 2
Fore
SplineSet
87 722 m 0
 181 722 l 0
 182 714 179 707 177 704 c 0
 174 697 171 693 171 683 c 0
 171 69 l 0
 519 69 l 0
 519 0 l 0
 87 0 l 0
 87 722 l 0
EndSplineSet
EndChar

StartChar: ampersand
Encoding: 38 38 53
Width: 600
Flags: HMW
TeX: 78 0
LayerCount: 2
Fore
SplineSet
275 729 m 0
 362 729 430 664 430 575 c 0
 430 499 381 423 305 382 c 0
 435 201 l 0
 463 233 478 267 487 294 c 0
 488 297 489 300 489 303 c 0
 489 308 487 312 487 317 c 0
 487 323 489 327 492 329 c 0
 567 277 l 0
 541 230 512 185 479 142 c 0
 560 37 l 0
 492 -14 l 0
 428 88 l 0
 382 31 311 -12 233 -12 c 0
 128 -12 52 66 52 169 c 0
 52 259 109 348 198 397 c 0
 155 449 116 513 116 577 c 0
 116 664 187 729 275 729 c 0
196 576 m 0
 196 545 208 504 266 432 c 0
 320 462 354 517 354 569 c 0
 354 624 316 660 274 660 c 0
 233 660 196 626 196 576 c 0
238 343 m 0
 176 303 139 237 139 177 c 0
 139 110 186 63 245 63 c 0
 322 63 386 143 386 143 c 0
 238 343 l 0
EndSplineSet
Validated: 1
EndChar

StartChar: F
Encoding: 70 70 54
Width: 600
Flags: HMW
TeX: 78 0
LayerCount: 2
Fore
SplineSet
100 722 m 0
 516 722 l 0
 516 652 l 0
 182 652 l 0
 182 425 l 0
 452 425 l 0
 452 355 l 0
 182 355 l 0
 182 0 l 0
 100 0 l 0
 100 722 l 0
EndSplineSet
EndChar

StartChar: w
Encoding: 119 119 55
Width: 600
Flags: HMW
TeX: 119 0
LayerCount: 2
Fore
SplineSet
28 529 m 0
 113 529 l 0
 116 520 113 513 111 507 c 0
 108 498 108 494 110 486 c 0
 187 104 l 0
 278 480 l 0
 329 480 l 0
 441 105 l 0
 482 372 490 449 490 507 c 0
 490 515 490 522 490 529 c 0
 567 529 l 0
 544 351 515 176 479 0 c 0
 401 0 l 0
 303 342 l 0
 210 0 l 0
 135 0 l 0
 28 529 l 0
EndSplineSet
EndChar

StartChar: T
Encoding: 84 84 59
Width: 600
Flags: HMW
TeX: 84 0
LayerCount: 2
Fore
SplineSet
46 722 m 0
 546 722 l 0
 546 650 l 0
 333 650 l 0
 333 0 l 0
 251 0 l 0
 251 650 l 0
 46 650 l 0
 46 722 l 0
EndSplineSet
EndChar

StartChar: hyphen
Encoding: 45 45 60
Width: 600
Flags: HMW
TeX: 104 0
LayerCount: 2
Fore
SplineSet
92 403 m 0
 509 403 l 0
 509 326 l 0
 92 326 l 0
 92 403 l 0
EndSplineSet
Validated: 1
EndChar

StartChar: exclam
Encoding: 33 33 61
Width: 600
Flags: HMW
TeX: 101 0
LayerCount: 2
Fore
SplineSet
356 55 m 0
 356 18 325 -13 287 -13 c 0
 250 -13 219 18 219 55 c 0
 219 93 250 124 287 124 c 0
 325 124 356 93 356 55 c 0
289 774 m 0
 311 774 335 759 344 724 c 0
 346 717 349 704 349 677 c 0
 349 633 341 589 338 545 c 0
 317 225 l 0
 259 225 l 0
 242 545 l 0
 238 621 231 649 231 687 c 0
 231 708 233 724 238 737 c 0
 249 762 269 774 289 774 c 0
EndSplineSet
Validated: 1
EndChar

StartChar: U
Encoding: 85 85 63
Width: 600
Flags: HMW
TeX: 85 0
LayerCount: 2
Fore
SplineSet
68 722 m 0
 159 722 l 0
 160 720 160 718 160 716 c 0
 160 709 156 704 153 700 c 0
 148 694 148 690 148 685 c 0
 148 248 l 0
 148 212 149 177 165 142 c 0
 191 86 246 56 303 56 c 0
 359 56 414 85 440 141 c 0
 458 177 459 214 459 251 c 0
 459 722 l 0
 536 722 l 0
 536 253 l 0
 536 200 534 150 507 100 c 0
 466 24 385 -13 301 -13 c 0
 216 -13 136 25 96 99 c 0
 69 149 68 198 68 249 c 0
 68 249 l 0
 68 722 l 0
EndSplineSet
Validated: 5
EndChar

StartChar: numbersign
Encoding: 35 35 64
Width: 600
Flags: HMW
TeX: 110 0
LayerCount: 2
Fore
SplineSet
211 723 m 1
 281 726 l 1
 257 527 l 1
 385 529 l 1
 407 717 l 1
 479 720 l 1
 456 530 l 1
 561 531 l 1
 555 475 l 1
 449 474 l 1
 425 279 l 1
 540 281 l 1
 534 227 l 1
 419 225 l 1
 393 16 l 1
 323 12 l 1
 348 224 l 1
 220 222 l 1
 195 16 l 1
 127 13 l 1
 152 221 l 1
 39 219 l 1
 44 272 l 1
 158 274 l 1
 181 471 l 1
 55 470 l 1
 59 525 l 1
 188 527 l 1
 211 723 l 1
250 472 m 1
 226 275 l 1
 355 278 l 1
 378 473 l 1
 250 472 l 1
EndSplineSet
Validated: 1
EndChar

StartChar: j
Encoding: 106 106 65
Width: 600
Flags: HMW
TeX: 106 0
LayerCount: 2
Fore
SplineSet
156 529 m 0
 437 529 l 0
 437 37 l 0
 437 -9 436 -52 413 -96 c 0
 377 -167 303 -202 228 -202 c 0
 162 -202 104 -175 66 -128 c 0
 120 -56 l 0
 127 -62 125 -69 130 -77 c 0
 134 -84 169 -130 233 -130 c 0
 278 -130 320 -106 339 -63 c 0
 352 -35 353 -7 353 21 c 0
 353 461 l 0
 156 461 l 0
 156 529 l 0
396 760 m 0
 429 760 456 733 456 700 c 0
 456 668 429 641 396 641 c 0
 363 641 336 668 336 700 c 0
 336 733 363 760 396 760 c 0
EndSplineSet
EndChar

StartChar: x
Encoding: 120 120 66
Width: 600
Flags: HMW
TeX: 120 0
LayerCount: 2
Fore
SplineSet
430 529 m 1
 515 529 l 1
 343 272 l 1
 538 0 l 1
 443 0 l 1
 297 206 l 1
 159 0 l 1
 65 0 l 1
 251 269 l 1
 68 529 l 1
 159 529 l 1
 298 334 l 1
 430 529 l 1
EndSplineSet
EndChar

StartChar: G
Encoding: 71 71 67
Width: 600
Flags: HMW
TeX: 71 0
LayerCount: 2
Fore
SplineSet
331 729 m 0
 420 729 500 683 541 608 c 0
 484 550 l 0
 475 556 472 565 469 573 c 0
 446 621 395 658 331 658 c 0
 270 658 206 625 168 555 c 0
 140 501 132 437 132 369 c 0
 132 293 140 192 201 123 c 0
 240 78 291 60 338 60 c 0
 381 60 427 75 468 104 c 0
 468 276 l 0
 337 276 l 0
 337 346 l 0
 543 346 l 0
 543 64 l 0
 475 14 398 -12 331 -12 c 0
 205 -12 52 79 52 352 c 0
 52 669 235 729 331 729 c 0
EndSplineSet
EndChar

StartChar: k
Encoding: 107 107 68
Width: 600
Flags: HMW
TeX: 107 0
LayerCount: 2
Fore
SplineSet
87 770 m 0
 182 770 l 0
 183 762 178 757 175 753 c 0
 171 748 171 745 171 740 c 0
 171 286 l 0
 436 532 l 0
 457 527 478 526 498 526 c 0
 528 526 l 0
 305 316 l 0
 565 0 l 0
 562 0 560 0 557 0 c 0
 501 0 457 -5 457 -5 c 0
 241 265 l 0
 171 200 l 0
 171 0 l 0
 87 0 l 0
 87 770 l 0
EndSplineSet
EndChar

StartChar: z
Encoding: 122 122 69
Width: 600
Flags: HMW
TeX: 122 0
LayerCount: 2
Fore
SplineSet
92 529 m 0
 504 529 l 0
 504 473 l 0
 181 71 l 0
 496 71 l 0
 510 71 516 78 527 78 c 0
 528 78 530 78 531 78 c 0
 531 0 l 0
 68 0 l 0
 68 56 l 0
 396 457 l 0
 92 457 l 0
 92 529 l 0
EndSplineSet
EndChar

StartChar: dollar
Encoding: 36 36 70
Width: 600
Flags: HMW
TeX: 100 0
LayerCount: 2
Fore
SplineSet
282 754 m 1
 357 754 l 1
 358 753 358 751 358 750 c 0
 358 741 350 741 350 730 c 2
 350 686 l 1
 418 679 479 648 522 597 c 1
 472 534 l 1
 470 535 466 537 466 542 c 0
 466 545 467 549 465 552 c 0
 464 553 464 554 460 559 c 0
 436 588 400 610 350 617 c 1
 350 394 l 1
 376 385 403 376 427 366 c 0
 451 355 543 316 543 210 c 0
 543 127 481 36 350 19 c 1
 350 -54 l 1
 282 -54 l 1
 282 17 l 1
 202 22 131 53 79 109 c 1
 129 178 l 1
 135 175 134 169 134 167 c 0
 134 162 133 159 138 154 c 0
 170 120 221 90 282 83 c 1
 282 338 l 1
 261 345 239 353 218 363 c 0
 121 409 102 474 102 517 c 0
 102 600 175 671 282 685 c 1
 282 754 l 1
350 317 m 1
 350 86 l 1
 424 100 467 153 467 205 c 0
 467 229 458 267 410 294 c 0
 394 302 373 310 350 317 c 1
282 418 m 1
 282 619 l 1
 209 610 178 567 178 527 c 0
 178 501 190 467 241 437 c 0
 253 430 267 424 282 418 c 1
EndSplineSet
Validated: 1
EndChar

StartChar: A
Encoding: 65 65 71
Width: 600
Flags: HMW
TeX: 65 0
LayerCount: 2
Fore
SplineSet
27 0 m 0
 282 735 l 0
 291 735 l 0
 570 0 l 0
 486 0 l 0
 406 211 l 0
 177 211 l 0
 107 0 l 0
 27 0 l 0
388 274 m 0
 286 549 l 0
 193 274 l 0
 388 274 l 0
EndSplineSet
EndChar

StartChar: C
Encoding: 67 67 72
Width: 600
Flags: HMW
TeX: 67 0
LayerCount: 2
Fore
SplineSet
332 728 m 0
 428 728 514 672 553 585 c 0
 476 547 l 0
 471 551 471 557 471 558 c 0
 471 561 471 564 471 567 c 0
 471 572 470 575 467 579 c 0
 438 630 385 663 329 663 c 0
 227 663 136 556 136 364 c 0
 136 169 229 58 336 58 c 0
 392 58 450 91 483 146 c 0
 543 107 l 0
 498 33 417 -12 331 -12 c 0
 212 -12 57 78 57 357 c 0
 57 646 219 728 332 728 c 0
EndSplineSet
Validated: 1
EndChar

StartChar: B
Encoding: 66 66 73
Width: 600
Flags: HMWO
TeX: 66 0
LayerCount: 2
Fore
SplineSet
66 722 m 0
 271 722 l 0
 315 722 361 722 406 702 c 0
 474 672 511 610 511 546 c 0
 511 476 469 413 404 387 c 0
 485 360 539 284 539 200 c 0
 539 125 496 55 419 22 c 0
 369 1 319 0 270 0 c 0
 66 0 l 0
 66 722 l 0
146 653 m 0
 146 423 l 0
 259 423 l 0
 291 423 326 423 359 438 c 0
 404 457 429 497 429 538 c 0
 429 580 404 621 356 640 c 0
 324 653 291 653 260 653 c 0
 146 653 l 0
146 355 m 0
 146 71 l 0
 284 71 l 0
 315 71 346 72 377 86 c 0
 427 108 454 156 454 208 c 0
 454 260 426 312 372 337 c 0
 336 354 300 355 264 355 c 0
 146 355 l 0
EndSplineSet
EndChar

StartChar: bracketleft
Encoding: 91 91 74
Width: 600
Flags: HMW
TeX: 98 0
LayerCount: 2
Fore
SplineSet
162 776 m 0
 493 776 l 0
 493 707 l 0
 236 707 l 0
 236 -37 l 0
 494 -37 l 0
 494 -103 l 0
 162 -103 l 0
 162 776 l 0
EndSplineSet
Validated: 1
EndChar

StartChar: bracketright
Encoding: 93 93 75
Width: 600
Flags: HMW
TeX: 98 0
LayerCount: 2
Fore
SplineSet
438 776 m 0
 438 -103 l 0
 106 -103 l 0
 106 -37 l 0
 364 -37 l 0
 364 707 l 0
 107 707 l 0
 107 776 l 0
 438 776 l 0
EndSplineSet
EndChar

StartChar: parenleft
Encoding: 40 40 76
Width: 600
Flags: HMW
TeX: 112 0
LayerCount: 2
Fore
SplineSet
464 772 m 4
 499 701 l 4
 495.074 698.763 491.329 698.611 489.669 698.611 c 4
 485.073 698.611 481.395 699.932 477.323 699.932 c 4
 472.717 699.932 469.928 698.14 466.835 696.315 c 4
 331.453 616.467 251.273 468.859 251.273 303.345 c 4
 251.273 123.314 344.63 -46.9685 503 -139 c 4
 465 -200 l 4
 281.456 -103.658 170.68 88.9922 170.68 299.462 c 4
 170.68 511.567 284.678 693.118 464 772 c 4
EndSplineSet
Validated: 524289
EndChar

StartChar: parenright
Encoding: 41 41 77
Width: 600
Flags: HMW
TeX: 112 0
LayerCount: 2
Fore
SplineSet
100 699 m 0
 122 771 l 0
 310.266 684.352 432 496.633 432 290.289 c 0
 432 82.1043 308.169 -110.384 116 -202 c 0
 94 -132 l 0
 250.594 -49.1168 350.028 112.597 350.028 286.978 c 0
 350.028 458.955 253.152 617.58 100 699 c 0
EndSplineSet
Validated: 524289
EndChar

StartChar: three
Encoding: 51 51 78
Width: 600
Flags: HMW
TeX: 116 0
LayerCount: 2
Fore
SplineSet
486.039 541.353 m 0
 486.039 471.159 442.787 409.132 378 385 c 0
 452.906 357.628 502.026 284.533 502.026 198.625 c 0
 502.026 86.4453 418.041 -12.1905 279.723 -12.1905 c 0
 207.414 -12.1905 138.424 16.1652 90 70 c 0
 151 143 l 0
 161.292 132.464 156.135 121.234 165.975 110.147 c 0
 171.105 104.367 211.734 61.2614 278.997 61.2614 c 0
 363.525 61.2614 424.303 129.155 424.303 208.449 c 0
 424.303 294.507 352.456 345.579 254.688 345.579 c 0
 242.418 345.579 230.159 344.711 218 343 c 0
 218 408 l 0
 286.501 408.15 319.346 420.748 332.04 426.323 c 0
 382.02 448.274 409.043 495.946 409.043 539.93 c 0
 409.043 600.917 357.627 652.425 283.533 652.425 c 0
 238.887 652.425 192.677 633.092 159 597 c 0
 114 647 l 0
 159.315 696.504 222.364 724.29 287.492 724.29 c 0
 401.687 724.29 486.039 639.912 486.039 541.353 c 0
EndSplineSet
Validated: 524289
EndChar

StartChar: D
Encoding: 68 68 79
Width: 600
Flags: HMW
TeX: 68 0
LayerCount: 2
Fore
SplineSet
72 722 m 0
 241 722 l 0
 305 722 357 717 409 683 c 0
 502 623 543 501 543 362 c 0
 543 204 487 81 383 28 c 0
 332 2 284 0 227 0 c 0
 72 0 l 0
 72 722 l 0
149 653 m 0
 149 63 l 0
 223 63 l 0
 268 63 313 65 358 96 c 0
 416 134 461 214 461 351 c 0
 461 455 439 558 372 613 c 0
 327 650 281 653 236 653 c 0
 149 653 l 0
EndSplineSet
EndChar

StartChar: E
Encoding: 69 69 80
Width: 600
Flags: HMW
TeX: 69 0
LayerCount: 2
Fore
SplineSet
78 722 m 0
 521 722 l 0
 521 651 l 0
 155 651 l 0
 155 414 l 0
 457 414 l 0
 457 340 l 0
 155 340 l 0
 155 72 l 0
 518 72 l 0
 518 0 l 0
 78 0 l 0
 78 722 l 0
EndSplineSet
EndChar

StartChar: V
Encoding: 86 86 81
Width: 600
Flags: HMW
TeX: 86 0
LayerCount: 2
Fore
SplineSet
39 722 m 0
 124 722 l 0
 309 168 l 0
 484 722 l 0
 564 722 l 0
 322 -5 l 0
 285 -5 l 0
 39 722 l 0
EndSplineSet
EndChar

StartChar: percent
Encoding: 37 37 82
Width: 600
Flags: HMW
TeX: 112 0
LayerCount: 2
Fore
SplineSet
463 722 m 0
 541 722 l 0
 137 0 l 0
 63 0 l 0
 463 722 l 0
171.904 735.106 m 0
 242.474 735.106 302.16 670.55 302.16 582.187 c 0
 302.16 496.123 243.528 431.982 172.952 431.982 c 0
 101.84 431.982 42.8516 496.911 42.8516 583.448 c 0
 42.8516 672.526 103.042 735.106 171.904 735.106 c 0
170.33 674.005 m 0
 147.48 674.005 112.978 656.124 112.978 587.43 c 0
 112.978 508.953 151.261 493.911 172.149 493.911 c 0
 195.202 493.911 229.092 512.141 229.092 579.148 c 0
 229.092 661.667 189.098 674.005 170.33 674.005 c 0
569.018 138.593 m 0
 569.018 51.7449 509.983 -12.1238 439.695 -12.1238 c 0
 369.049 -12.1238 309.98 52.0529 309.98 138.262 c 0
 309.98 225.089 369.219 289.001 439.589 289.001 c 0
 510.127 289.001 569.018 224.871 569.018 138.593 c 0
439.32 229.005 m 0
 414.436 229.005 378.994 208.941 378.994 138.34 c 0
 378.994 69.8907 413.149 46.7696 440.303 46.7696 c 0
 465.114 46.7696 500.009 66.7942 500.009 135.903 c 0
 500.009 210.33 463.157 229.005 439.32 229.005 c 0
EndSplineSet
Validated: 524289
EndChar

StartChar: J
Encoding: 74 74 83
Width: 600
Flags: HMW
TeX: 74 0
LayerCount: 2
Fore
SplineSet
209 722 m 0
 539 722 l 0
 539 654 l 0
 428 654 l 0
 428 242 l 0
 428 190 428 135 400 83 c 0
 366 21 304 -12 235 -12 c 0
 172 -12 110 16 67 67 c 0
 121 133 l 0
 128 127 123 119 128 112 c 0
 131 109 176 59 237 59 c 0
 271 59 303 76 322 105 c 0
 347.138 142.241 348.005 189.018 348.005 231.61 c 0
 348 241 l 0
 348 654 l 0
 209 654 l 0
 209 722 l 0
EndSplineSet
EndChar

StartChar: K
Encoding: 75 75 84
Width: 600
Flags: HMW
TeX: 75 0
LayerCount: 2
Fore
SplineSet
59 722 m 0
 156 722 l 0
 157 714 152 710 149 706 c 0
 145 701 145 698 145 693 c 0
 145 389 l 0
 447 728 l 0
 467 723 487 722 507 722 c 0
 537 722 l 0
 264 410 l 0
 556 0 l 0
 499 0 453 -5 453 -5 c 0
 202 361 l 0
 145 299 l 0
 145 0 l 0
 59 0 l 0
 59 722 l 0
EndSplineSet
EndChar

StartChar: P
Encoding: 80 80 85
Width: 600
Flags: HMW
TeX: 80 0
LayerCount: 2
Fore
SplineSet
78 722 m 0
 298 722 l 0
 345 722 389 721 435 697 c 0
 503 662 538 592 538 519 c 0
 538 446 503 376 436 342 c 0
 392 320 349 319 304 319 c 0
 304 319 l 0
 162 319 l 0
 162 0 l 0
 78 0 l 0
 78 722 l 0
162 646 m 0
 162 390 l 0
 307 390 l 0
 335 390 363 391 391 405 c 0
 433 426 455 469 455 515 c 0
 455 562 432 608 387 630 c 0
 357 645 328 646 298 646 c 0
 162 646 l 0
EndSplineSet
EndChar

StartChar: question
Encoding: 63 63 86
Width: 600
Flags: HMW
TeX: 113 0
LayerCount: 2
Fore
SplineSet
381.002 51.4929 m 0
 381.002 15.0088 350.552 -15.046 312.441 -15.046 c 0
 274.415 -15.046 243.952 14.9803 243.952 51.509 c 0
 243.952 87.9628 274.383 118.002 312.462 118.002 c 0
 350.556 118.002 381.002 87.961 381.002 51.4929 c 0
84 650 m 0
 134.425 727.691 220.637 771.06 307.402 771.06 c 0
 438.699 771.06 513.24 674.633 513.24 566.639 c 0
 513.24 457.756 436.646 413.666 398.404 379.676 c 0
 350.692 337.269 348 302.835 348 262 c 0
 348 214 l 0
 272 214 l 0
 272 262 l 0
 272 314.014 275.26 354.806 326.449 411.013 c 0
 361.471 449.468 421.576 496.796 421.576 572.709 c 0
 421.576 641.182 368.948 695.153 299.634 695.153 c 0
 241.046 695.153 179.542 656.112 143 595 c 0
 84 650 l 0
EndSplineSet
Validated: 524289
EndChar

StartChar: at
Encoding: 64 64 87
Width: 600
Flags: HMW
TeX: 97 0
LayerCount: 2
Fore
SplineSet
514 35 m 0
 465 4 409 -12 352 -12 c 0
 207 -12 46 95 46 364 c 0
 46 627 198 733 324 733 c 0
 408 733 486 687 523 605 c 0
 548 549 549 493 549 438 c 0
 549 203 l 0
 479 203 l 0
 479 247 l 0
 450 213 408 193 363 193 c 0
 280 193 213 260 213 344 c 0
 213 406 251 468 323 497 c 0
 369 515 415 515 459 515 c 0
 476 515 l 0
 476 601 408 671 321 671 c 0
 221 671 113 576 113 367 c 0
 113 141 246 53 358 53 c 0
 403 53 446 66 483 91 c 0
 514 35 l 0
479 457 m 0
 460 457 l 0
 419 457 370 457 331 430 c 0
 300 408 285 377 285 347 c 0
 285 297 326 257 377 257 c 0
 410 257 444 275 462 310 c 0
 478.2 341.5 479.01 380.29 479.01 421.267 c 0
 479.01 425.82 479 430.4 479 435 c 0
 479 457 l 0
EndSplineSet
EndChar

StartChar: bar
Encoding: 124 124 88
Width: 600
Flags: HMW
TeX: 98 0
LayerCount: 2
Fore
SplineSet
261 756 m 0
 339 756 l 0
 339 -175 l 0
 261 -175 l 0
 261 756 l 0
EndSplineSet
Validated: 1
EndChar

StartChar: asciitilde
Encoding: 126 126 89
Width: 600
Flags: HMW
TeX: 97 0
LayerCount: 2
Fore
SplineSet
116 396 m 0
 58 434 l 0
 92 492 151 538 217 538 c 0
 313 538 343 451 409 451 c 0
 447 451 475 481 508 526 c 0
 561 482 l 0
 531 436 473 375 401 375 c 0
 307 375 283 468 212 468 c 0
 179 468 145 444 116 396 c 0
EndSplineSet
EndChar

StartChar: asciicircum
Encoding: 94 94 90
Width: 600
Flags: HMW
TeX: 97 0
LayerCount: 2
Fore
SplineSet
118 425 m 0
 295 722 l 0
 320 722 l 0
 477 426 l 0
 415 397 l 0
 303 600 l 0
 176 397 l 0
 118 425 l 0
EndSplineSet
Validated: 1
EndChar

StartChar: cent
Encoding: 162 162 91
Width: 600
Flags: HMW
TeX: 99 0
LayerCount: 2
Fore
SplineSet
340 715 m 1
 418 715 l 1
 419 707 415 701 414 699 c 0
 411 694 409 691 408 683 c 2
 395 588 l 1
 458 575 505 541 533 498 c 1
 482 432 l 1
 477 436 477 442 477 444 c 0
 477 450 479 455 473 462 c 0
 458 480 429 505 386 518 c 1
 333 112 l 1
 333 112 l 2
 389 112 445 136 485 177 c 1
 527 121 l 1
 477 66 407 38 332 38 c 0
 329 38 326 38 323 38 c 1
 306 -91 l 1
 239 -83 l 1
 255 48 l 1
 141 80 66 182 66 316 c 0
 66 471 168 593 324 593 c 1
 340 715 l 1
265 125 m 1
 315 526 l 1
 220 526 148 448 148 327 c 0
 148 226 195 153 265 125 c 1
EndSplineSet
EndChar

StartChar: euro
Encoding: 164 8364 92
Width: 600
Flags: HMW
TeX: 78 0
LayerCount: 2
Fore
SplineSet
548 665 m 1
 519 586 l 1
 511 593 515 602 509 610 c 0
 508 611 465 661 387 661 c 0
 318 661 234 621 199 502 c 0
 198 496 196 489 194 480 c 1
 480 480 l 1
 455 413 l 1
 184 413 l 1
 184 393 181 371 181 345 c 0
 181 336 182 328 182 320 c 1
 420 320 l 1
 394 253 l 1
 188 253 l 1
 197 206 212 167 236 135 c 0
 276 80 335 57 389 57 c 0
 435 57 479 74 513 104 c 1
 546 46 l 1
 502 7 445 -12 384 -12 c 0
 290 -12 145 38 115 253 c 1
 48 253 l 1
 63 320 l 1
 110 320 l 1
 109 326 109 332 109 338 c 0
 109 363 110 388 113 413 c 1
 48 413 l 1
 63 480 l 1
 122 480 l 1
 131 521 144 560 164 594 c 0
 223 697 319 727 391 727 c 0
 453 727 508 706 548 665 c 1
EndSplineSet
EndChar

StartChar: sterling
Encoding: 163 163 93
Width: 600
Flags: HMW
TeX: 115 0
LayerCount: 2
Fore
SplineSet
494 663 m 1
 443 599 l 1
 434 606 434 615 428 623 c 0
 423 628 390 656 341 656 c 0
 279 656 218 609 218 513 c 0
 218 488 222 463 227 438 c 1
 342 438 l 1
 342 372 l 1
 243 372 l 1
 251 336 259 299 259 259 c 0
 259 202 244 148 216 104 c 1
 226 106 237 107 247 107 c 0
 324 107 372 59 438 59 c 0
 470 59 500 71 524 91 c 1
 555 31 l 1
 529 10 485 -17 434 -17 c 0
 360 -17 312 35 228 35 c 0
 204 35 159 30 85 -9 c 1
 55 57 l 1
 109 82 123 87 141 116 c 0
 167 156 181 205 181 257 c 0
 181 297 173 334 164 372 c 1
 88 372 l 1
 88 438 l 1
 148 438 l 1
 143 462 140 487 140 512 c 0
 140 642 236 722 343 722 c 0
 399 722 452 701 494 663 c 1
EndSplineSet
EndChar

StartChar: Y
Encoding: 89 89 94
Width: 600
Flags: HMW
TeX: 89 0
LayerCount: 2
Fore
SplineSet
43 722 m 0
 135 722 l 0
 312 372 l 0
 472 722 l 0
 558 722 l 0
 353 285 l 0
 353 0 l 0
 265 0 l 0
 265 285 l 0
 43 722 l 0
EndSplineSet
EndChar

StartChar: yen
Encoding: 165 165 95
Width: 600
Flags: HMW
TeX: 121 0
LayerCount: 2
Fore
SplineSet
52 722 m 1
 142 722 l 1
 310 421 l 1
 464 722 l 1
 550 722 l 1
 348 342 l 1
 348 318 l 1
 504 318 l 1
 504 252 l 1
 348 252 l 1
 348 179 l 1
 504 179 l 1
 504 114 l 1
 348 114 l 1
 348 0 l 1
 269 0 l 1
 269 114 l 1
 107 114 l 1
 107 179 l 1
 269 179 l 1
 269 252 l 1
 107 252 l 1
 107 318 l 1
 269 318 l 1
 269 342 l 1
 52 722 l 1
EndSplineSet
EndChar

StartChar: Z
Encoding: 90 90 96
Width: 600
Flags: HMW
TeX: 90 0
LayerCount: 2
Fore
SplineSet
82 722 m 0
 528 722 l 0
 528 665 l 0
 170 71 l 0
 511 71 l 0
 525.4 71 530.89 78.29 542.05 78.29 c 0
 543.29 78.29 544.6 78.2 546 78 c 0
 546 0 l 0
 68 0 l 0
 68 56 l 0
 432 649 l 0
 82 649 l 0
 82 722 l 0
EndSplineSet
EndChar

StartChar: Q
Encoding: 81 81 97
Width: 600
Flags: HMW
TeX: 81 0
LayerCount: 2
Fore
SplineSet
300 656 m 0
 222 656 123 586 123 374 c 0
 123 145 221 64 305 64 c 0
 366 64 478 108 478 348 c 0
 478 409 474 479 449 541 c 0
 414 626 351 656 300 656 c 0
556 358 m 0
 556 294 551 205 513 128 c 0
 473 48 409 4 343 -8 c 1
 343 -48 355 -95 428 -95 c 0
 454 -95 485 -89 522 -89 c 1
 522 -168 l 1
 496.848 -168 474.452 -168.459 454.198 -168.459 c 0
 407.613 -168.459 372.364 -166.03 341 -150 c 0
 289 -124 272 -74 272 -8 c 1
 167 8 44 105 44 362 c 0
 44 646 196 730 304 730 c 0
 383 730 466 686 513 592 c 0
 551 515 556 426 556 358 c 0
EndSplineSet
EndChar

StartChar: thorn
Encoding: 254 254 98
Width: 600
Flags: HMW
TeX: 116 0
LayerCount: 2
Fore
SplineSet
80 770 m 0
 172 770 l 0
 172 754 164 751 164 732 c 0
 164 448 l 0
 200 506 263 541 331 541 c 0
 435 541 546 458 546 271 c 0
 546 77 432 -12 324 -12 c 0
 260 -12 200 18 165 70 c 0
 165 -193 l 0
 80 -193 l 0
 80 770 l 0
301 470 m 0
 247 470 198 441 178 393 c 0
 166 366 164 334 164 289 c 0
 164 212 164 169 179 133 c 0
 200 85 250 60 300 60 c 0
 350 60 459 87 459 253 c 0
 459 446 347 470 301 470 c 0
EndSplineSet
EndChar

StartChar: plusminus
Encoding: 177 177 100
Width: 600
Flags: HMW
TeX: 112 0
LayerCount: 2
Fore
SplineSet
63 93 m 0
 540 93 l 0
 540 20 l 0
 63 20 l 0
 63 93 l 0
EndSplineSet
Refer: 28 43 N 1 0 0 1 0 60 2
Validated: 1
EndChar

StartChar: R
Encoding: 82 82 101
Width: 600
Flags: HMW
TeX: 82 0
LayerCount: 2
Fore
SplineSet
75 722 m 0
 288 722 l 0
 335 722 380 721 426 698 c 0
 492 664 528 596 528 524 c 0
 528 428 468 346 381 322 c 0
 548 0 l 0
 457 0 l 0
 297 319 l 0
 157 319 l 0
 157 0 l 0
 75 0 l 0
 75 722 l 0
157 646 m 0
 157 390 l 0
 297 390 l 0
 325 390 353 391 381 405 c 0
 423 426 445 469 445 515 c 0
 445 562 422 608 377 630 c 0
 347 645 318 646 288 646 c 0
 157 646 l 0
EndSplineSet
EndChar

StartChar: X
Encoding: 88 88 102
Width: 600
Flags: HMW
TeX: 88 0
LayerCount: 2
Fore
SplineSet
449 722 m 1
 530 722 l 1
 347 370 l 1
 552 0 l 1
 461 0 l 1
 300 286 l 1
 146 0 l 1
 57 0 l 1
 254 368 l 1
 61 722 l 1
 148 722 l 1
 300 449 l 1
 449 722 l 1
EndSplineSet
EndChar

StartChar: six
Encoding: 54 54 103
Width: 600
Flags: HMW
TeX: 115 0
LayerCount: 2
Fore
SplineSet
342.659 730.138 m 0
 401.412 730.138 458.584 705.809 501 664 c 0
 445 602 l 0
 434.368 609.82 434.59 620.671 427.517 628.077 c 0
 423.092 632.711 391.165 658.246 343.16 658.246 c 0
 291.254 658.246 172.411 625.987 168 379 c 0
 199.898 432.999 258.013 466.137 321.005 466.137 c 0
 423.075 466.137 519.08 379.808 519.08 229.538 c 0
 519.08 80.8581 422.752 -12.0026 312.997 -12.0026 c 0
 248.704 -12.0026 184.458 20.3794 142.414 83.8806 c 0
 96.0423 153.919 87.8103 244.182 87.8103 328.725 c 0
 87.8103 398.015 94.4787 482.075 118.688 550.855 c 0
 163.122 677.091 256.592 730.138 342.659 730.138 c 0
313.429 395.091 m 0
 259.837 395.091 204.549 357.227 172 298 c 0
 162.434 163.097 228.337 59.9447 316.419 59.9447 c 0
 377.654 59.9447 440.168 112.511 440.168 225.41 c 0
 440.168 349.842 371.467 395.091 313.429 395.091 c 0
EndSplineSet
Validated: 524321
EndChar

StartChar: nine
Encoding: 57 57 104
Width: 600
Flags: HMW
TeX: 110 0
LayerCount: 2
Fore
SplineSet
261.675 -12.1561 m 0
 202.075 -12.1561 144.572 11.7985 102 54 c 0
 158 116 l 0
 170.321 108.179 167.108 95.6999 176.888 88.125 c 0
 177.128 87.939 212.027 61.8787 263.838 61.8787 c 0
 315.736 61.8787 375.697 88.07 406.577 161.072 c 0
 414.19 179.068 432.572 227.741 436 340 c 0
 402.346 291.195 346.701 261.958 287.116 261.958 c 0
 182.228 261.958 88.9944 351.151 88.9944 489.856 c 0
 88.9944 629.773 183.329 729 295.648 729 c 0
 371.017 729 454.143 682.757 491.757 572.33 c 0
 508.564 522.989 516.664 460.639 516.664 370.261 c 0
 516.664 252.09 498.421 189.45 485.749 156.035 c 0
 442.004 40.6809 349.796 -12.1561 261.675 -12.1561 c 0
294.989 332.729 m 0
 346.985 332.729 400.082 367.207 432 421 c 0
 444.812 566.747 376.145 657.043 293.961 657.043 c 0
 228.457 657.043 167.969 598.264 167.969 493.195 c 0
 167.969 385.709 230.618 332.729 294.989 332.729 c 0
EndSplineSet
Validated: 524321
EndChar

StartChar: seven
Encoding: 55 55 105
Width: 600
Flags: HMW
TeX: 115 0
LayerCount: 2
Fore
SplineSet
101 722 m 0
 510 722 l 0
 510 677 l 0
 461.138 565.327 415.446 452.266 373 338 c 0
 331.553 226.425 293.2 113.7 258 0 c 0
 167 0 l 0
 209.792 129.784 255.811 258.503 305 386 c 0
 338.534 472.918 373.54 559.268 410 645 c 0
 101 645 l 0
 101 722 l 0
EndSplineSet
Validated: 524289
EndChar

StartChar: W
Encoding: 87 87 106
Width: 600
Flags: HMW
TeX: 87 0
LayerCount: 2
Fore
SplineSet
30 722 m 0
 105 722 l 0
 183 234 l 0
 299 669 l 0
 324 669 l 0
 441 232 l 0
 507 722 l 0
 575 722 l 0
 461 -5 l 0
 429 -5 l 0
 305 472 l 0
 179 -5 l 0
 146 -5 l 0
 30 722 l 0
EndSplineSet
Validated: 1
EndChar

StartChar: acute
Encoding: 260 180 107
Width: 600
Flags: HMW
TeX: 78 0
LayerCount: 2
Fore
SplineSet
348 810 m 0
 421 761 l 0
 304 605 l 0
 246 640 l 0
 348 810 l 0
EndSplineSet
Validated: 1
EndChar

StartChar: oslash
Encoding: 248 248 123
Width: 600
Flags: HMW
TeX: 111 0
LayerCount: 2
Fore
SplineSet
302 470 m 0
 221 470 145 398 145 268 c 0
 145 210 160 163 184 127 c 1
 362 456 l 1
 343 465 322 470 302 470 c 0
543 262 m 0
 543 87 430 -12 305 -12 c 0
 267 -12 231 -5 198 12 c 1
 151 -74 l 1
 91 -43 l 1
 142 51 l 1
 90 100 57 173 57 261 c 0
 57 424 173 541 307 541 c 0
 339 541 369 535 398 522 c 1
 441 601 l 1
 503 568 l 1
 457 484 l 1
 508 437 543 363 543 262 c 0
416 410 m 1
 234 78 l 1
 256 65 281 58 306 58 c 0
 383 58 459 126 459 259 c 0
 459 325 442 375 416 410 c 1
EndSplineSet
EndChar

StartChar: uni02CB
Encoding: 259 715 130
Width: 600
Flags: HMW
TeX: 78 0
LayerCount: 2
Fore
SplineSet
292 810 m 0
 394 640 l 0
 336 605 l 0
 219 761 l 0
 292 810 l 0
EndSplineSet
EndChar

StartChar: dotlessi
Encoding: 272 305 136
Width: 600
Flags: HMW
TeX: 78 0
LayerCount: 2
Fore
SplineSet
133 529 m 0
 345 529 l 0
 345 67 l 0
 469 67 l 0
 469 0 l 0
 126 0 l 0
 126 67 l 0
 261 67 l 0
 261 462 l 0
 133 462 l 0
 133 529 l 0
EndSplineSet
EndChar

StartChar: circumflex
Encoding: 261 710 137
Width: 600
Flags: HMW
TeX: 78 0
LayerCount: 2
Fore
SplineSet
165 631 m 0
 294 794 l 0
 319 794 l 0
 447 630 l 0
 393 590 l 0
 303 709 l 0
 209 591 l 0
 165 631 l 0
EndSplineSet
Validated: 1
EndChar

StartChar: tilde
Encoding: 262 732 138
Width: 600
Flags: HMW
TeX: 78 0
LayerCount: 2
Fore
SplineSet
167 646 m 0
 115 683 l 0
 158 751 201 783 246 783 c 0
 293 783 324 749 339 734 c 0
 358 714 375 697 397 697 c 0
 425 697 439 724 464 758 c 0
 507 712 l 0
 467 662 435 630 393 630 c 0
 325 630 294 717 243 717 c 0
 212 717 195 691 167 646 c 0
EndSplineSet
EndChar

StartChar: dieresis
Encoding: 266 168 139
Width: 600
Flags: HMW
TeX: 78 0
LayerCount: 2
Fore
SplineSet
257 711 m 0
 257 679 231 653 199 653 c 0
 166 653 140 679 140 711 c 0
 140 744 166 770 198 770 c 0
 231 770 257 744 257 711 c 0
463 712 m 0
 463 679 437 653 405 653 c 0
 373 653 347 679 347 712 c 0
 347 744 373 770 405 770 c 0
 437 770 463 744 463 712 c 0
EndSplineSet
EndChar

StartChar: germandbls
Encoding: 223 223 144
Width: 600
Flags: HMW
TeX: 103 0
LayerCount: 2
Fore
SplineSet
74 0 m 0
 74 490 l 0
 74 543 75 596 98 650 c 0
 134 730 208 775 287 775 c 0
 403 775 497 681 497 571 c 0
 497 504 462 445 405 416 c 0
 492 389 548 306 548 209 c 0
 548 83 454 -12 335 -12 c 0
 293 -12 251 0 215 24 c 0
 256 89 l 0
 278 72 306 62 334 62 c 0
 408 62 471 125 471 209 c 0
 471 270 438 324 395 351 c 0
 362 371 331 374 293 374 c 0
 258 374 l 0
 258 440 l 0
 291 440 l 0
 308 440 325 441 344 449 c 0
 388 469 418 519 418 573 c 0
 418 649 361 708 292 708 c 0
 254 708 214 690 187 650 c 0
 154 602 153 543 153 492 c 0
 153 0 l 0
 74 0 l 0
EndSplineSet
EndChar

StartChar: paragraph
Encoding: 182 182 145
Width: 600
Flags: HMW
TeX: 112 0
LayerCount: 2
Fore
SplineSet
515 770 m 0
 515 -79 l 0
 448 -79 l 0
 448 705 l 0
 360 705 l 0
 360 -79 l 0
 291 -79 l 0
 291 373 l 0
 174 373 84 470 84 575 c 0
 84 646 126 713 203 747 c 0
 254.692 769.154 307.237 770.006 357.487 770.006 c 0
 370 770 l 0
 515 770 l 0
EndSplineSet
EndChar

StartChar: section
Encoding: 167 167 146
Width: 600
Flags: HMW
TeX: 115 0
LayerCount: 2
Fore
SplineSet
488 676 m 1
 423 618 l 1
 415 624 417 634 414 642 c 0
 404 668 370 710 308 710 c 0
 247 710 203 669 203 621 c 0
 203 597 214 562 264 535 c 0
 298 517 341 507 388 485 c 0
 469 446 494 396 494 354 c 0
 494 305 459 263 409 242 c 1
 459 207 483 157 483 107 c 0
 483 17 403 -63 286 -63 c 0
 209 -63 133 -28 85 36 c 1
 146 107 l 1
 155 103 153 93 156 87 c 0
 159 78 199 14 286 14 c 0
 357 14 400 57 400 105 c 0
 400 132 386 164 347 187 c 0
 299 216 233 220 175 254 c 0
 124 284 102 326 102 366 c 0
 102 418 141 463 196 483 c 1
 141 517 119 568 119 614 c 0
 119 702 199 778 308 778 c 0
 385 778 452 739 488 676 c 1
239 462 m 1
 208 452 186 423 186 389 c 0
 186 364 199 328 248 304 c 0
 283 287 324 281 365 265 c 1
 391 277 407 304 407 334 c 0
 407 360 394 398 340 425 c 0
 311 439 275 447 239 462 c 1
EndSplineSet
EndChar

StartChar: copyright
Encoding: 169 169 147
Width: 600
Flags: HMW
TeX: 99 0
LayerCount: 2
Fore
SplineSet
314 491 m 0
 387 491 443 446 458 384 c 0
 398 361 l 0
 392 369 395 377 394 385 c 0
 391 393 373 433 316 433 c 0
 261 433 208 399 208 327 c 0
 208 257 256 202 317 202 c 0
 354 202 387 222 404 254 c 0
 455 220 l 0
 423 171 369 141 312 141 c 0
 218 141 143 223 143 319 c 0
 143 418 220 491 314 491 c 0
306 22 m 0
 153 22 26 152 26 317 c 0
 26 483 153 614 307 614 c 0
 460 614 587 484 587 318 c 0
 587 152 459 22 306 22 c 0
79 318 m 0
 79 180 183 72 308 72 c 0
 432 72 537 180 537 319 c 0
 537 457 433 565 308 565 c 0
 183 565 79 457 79 318 c 0
EndSplineSet
EndChar

StartChar: registered
Encoding: 174 174 148
Width: 600
Flags: HMW
TeX: 114 0
LayerCount: 2
Fore
SplineSet
306 22 m 0
 153 22 26 152 26 317 c 0
 26 483 153 614 307 614 c 0
 460 614 587 484 587 318 c 0
 587 152 459 22 306 22 c 0
79 318 m 0
 79 180 183 72 308 72 c 0
 432 72 537 180 537 319 c 0
 537 457 433 565 308 565 c 0
 183 565 79 457 79 318 c 0
190 154 m 0
 190 492 l 0
 299 492 l 0
 325 492 352 492 379 481 c 0
 418 464 439 429 439 394 c 0
 439 353 411 316 371 305 c 0
 446 160 l 0
 391 152 l 0
 319 297 l 0
 243 297 l 0
 243 154 l 0
 190 154 l 0
243 445 m 0
 243 343 l 0
 303 343 l 0
 322 343 345 343 363 355 c 0
 379 364 386 379 386 394 c 0
 386 409 378 425 360 435 c 0
 342 445 319 445 300 445 c 0
 243 445 l 0
EndSplineSet
EndChar

StartChar: uni00B9
Encoding: 185 185 149
Width: 600
Flags: HMW
TeX: 117 0
LayerCount: 2
Fore
SplineSet
356 733 m 0
 356 293 l 0
 282 293 l 0
 282 641 l 0
 170 612 l 0
 151 648 l 0
 306 733 l 0
 356 733 l 0
EndSplineSet
Validated: 1
EndChar

StartChar: guilsinglleft
Encoding: 273 8249 150
Width: 600
Flags: HMW
TeX: 78 0
LayerCount: 2
Fore
SplineSet
178 293 m 0
 354 464 l 0
 399 416 l 0
 259 279 l 0
 407 117 l 0
 361 71 l 0
 178 266 l 0
 178 293 l 0
EndSplineSet
Validated: 1
EndChar

StartChar: guilsinglright
Encoding: 274 8250 152
Width: 600
Flags: HMW
TeX: 78 0
LayerCount: 2
Fore
SplineSet
407 293 m 0
 407 266 l 0
 224 71 l 0
 178 117 l 0
 326 279 l 0
 186 416 l 0
 231 464 l 0
 407 293 l 0
EndSplineSet
EndChar

StartChar: guillemotright
Encoding: 187 187 153
Width: 600
Flags: HMW
TeX: 103 0
LayerCount: 2
Fore
SplineSet
317 293 m 0
 317 266 l 0
 134 71 l 0
 88 117 l 0
 236 279 l 0
 96 416 l 0
 141 464 l 0
 317 293 l 0
527 293 m 0
 527 266 l 0
 344 71 l 0
 298 117 l 0
 446 279 l 0
 306 416 l 0
 351 464 l 0
 527 293 l 0
EndSplineSet
EndChar

StartChar: logicalnot
Encoding: 172 172 154
Width: 600
Flags: HMW
TeX: 108 0
LayerCount: 2
Fore
SplineSet
116 402 m 0
 490 402 l 0
 490 182 l 0
 416 182 l 0
 416 329 l 0
 116 329 l 0
 116 402 l 0
EndSplineSet
Validated: 1
EndChar

StartChar: degree
Encoding: 176 176 156
Width: 600
Flags: HMW
TeX: 100 0
LayerCount: 2
Fore
SplineSet
463 584 m 0
 463 499 393 429 306 429 c 0
 220 429 150 499 150 584 c 0
 150 670 220 740 306 740 c 0
 393 740 463 670 463 584 c 0
308 679 m 0
 261 679 221 638 221 586 c 0
 221 534 260 493 308 493 c 0
 355 493 394 534 394 586 c 0
 394 638 355 679 308 679 c 0
EndSplineSet
EndChar

StartChar: uni00B2
Encoding: 178 178 157
Width: 600
Flags: HMW
TeX: 117 0
LayerCount: 2
Fore
SplineSet
139 642 m 0
 174 702 239 738 309 738 c 0
 401 738 464 679 464 609 c 0
 464 554 426 516 410 501 c 0
 364 458 300 428 235 356 c 0
 446 356 l 0
 451 356 454 357 458 361 c 0
 461 363 466 368 474 366 c 0
 474 293 l 0
 150 293 l 0
 150 344 l 0
 215 433 300 490 334 518 c 0
 368 545 394 573 394 608 c 0
 394 645 362 679 307 679 c 0
 262 679 225 656 204 630 c 0
 198 622 199 617 193 606 c 0
 139 642 l 0
EndSplineSet
EndChar

StartChar: eth
Encoding: 240 240 158
Width: 600
Flags: HMW
TeX: 101 0
LayerCount: 2
Fore
SplineSet
305 470 m 0
 227 470 145 406 145 269 c 0
 145 134 223 58 306 58 c 0
 371 58 459 108 459 269 c 0
 459 430 365 470 305 470 c 0
412 661 m 1
 483 580 543 462 543 293 c 0
 543 231 536 157 498 95 c 0
 456 24 384 -12 307 -12 c 0
 173 -12 57 99 57 258 c 0
 57 417 169 541 298 541 c 0
 352 541 402 519 437 481 c 1
 414 540 380 594 338 640 c 1
 190 598 l 1
 169 653 l 1
 289 686 l 1
 254 716 214 741 171 760 c 1
 265 779 l 1
 295 762 330 739 366 707 c 1
 491 741 l 1
 511 689 l 1
 412 661 l 1
EndSplineSet
EndChar

StartChar: Eth
Encoding: 208 208 159
Width: 600
Flags: HMW
TeX: 69 0
LayerCount: 2
Fore
SplineSet
101 722 m 0
 263 722 l 0
 326 722 376 716 426 679 c 0
 513 615 550 488 550 365 c 0
 550 211 491 73 380 21 c 0
 339 2 300 0 249 0 c 0
 101 0 l 0
 101 722 l 0
176 654 m 0
 176 66 l 0
 245 66 l 0
 286 66 325 68 366 96 c 0
 435 143 472 241 472 355 c 0
 472 436 455 525 411 585 c 0
 362 652 303 654 258 654 c 0
 176 654 l 0
45 416 m 0
 297 416 l 0
 297 349 l 0
 45 349 l 0
 45 416 l 0
EndSplineSet
EndChar

StartChar: Thorn
Encoding: 222 222 160
Width: 600
Flags: HMW
TeX: 84 0
LayerCount: 2
Fore
SplineSet
78 722 m 0
 169 722 l 0
 170 720 170 719 170 717 c 0
 170 711 166 706 163 702 c 0
 160 697 160 694 160 690 c 0
 160 586 l 0
 298 586 l 0
 345 586 389 585 435 561 c 0
 503 526 538 456 538 383 c 0
 538 310 503 240 436 206 c 0
 392 184 349 183 304 183 c 0
 160 183 l 0
 160 0 l 0
 78 0 l 0
 78 722 l 0
160 510 m 0
 160 254 l 0
 307 254 l 0
 335 254 363 255 391 269 c 0
 433 290 455 333 455 379 c 0
 455 426 432 472 387 494 c 0
 357 509 328 510 298 510 c 0
 160 510 l 0
EndSplineSet
EndChar

StartChar: ring
Encoding: 268 730 161
Width: 600
Flags: HMW
TeX: 78 0
LayerCount: 2
Fore
SplineSet
413 701 m 0
 413 645 366 599 307 599 c 0
 248 599 201 645 201 701 c 0
 201 757 248 803 307 803 c 0
 366 803 413 757 413 701 c 0
260 702 m 0
 260 672 282 649 308 649 c 0
 334 649 356 672 356 702 c 0
 356 732 334 755 308 755 c 0
 282 755 260 732 260 702 c 0
EndSplineSet
EndChar

StartChar: circumflex.cap
Encoding: 275 -1 190
Width: 600
Flags: HMW
TeX: 78 0
LayerCount: 2
Fore
SplineSet
142 659 m 0
 294 774 l 0
 319 774 l 0
 462 661 l 0
 424 617 l 0
 304 699 l 0
 175 620 l 0
 142 659 l 0
EndSplineSet
Validated: 1
EndChar

StartChar: ae
Encoding: 230 230 192
Width: 600
Flags: HMW
TeX: 97 0
LayerCount: 2
Fore
SplineSet
46 477 m 0
 79 518 129 541 180 541 c 0
 236 541 284 513 309 469 c 0
 335 514 382 541 431 541 c 0
 473 541 519 521 547 473 c 0
 578 423 578 363 578 311 c 0
 578 267 l 0
 337 267 l 0
 337 203 l 0
 337 175 338 152 349 127 c 0
 369 82 412 55 457 55 c 0
 491 55 522 70 542 97 c 0
 583 49 l 0
 550 10 502 -12 451 -12 c 0
 392 -12 337 17 305 67 c 0
 280 18 230 -12 174 -12 c 0
 91 -12 22 56 22 143 c 0
 22 203 55 267 128 300 c 0
 171 319 212 323 240 323 c 0
 266 323 l 0
 266 353 l 0
 266 374 265 394 258 413 c 0
 244 452 211 476 174 476 c 0
 142 476 108 457 87 426 c 0
 46 477 l 0
266 254 m 0
 241 254 l 0
 211 254 181 251 151 236 c 0
 114 217 96 181 96 148 c 0
 96 98 135 58 182 58 c 0
 214 58 246 76 259 112 c 0
 265.25 128.875 266.422 147.312 266.422 168.533 c 0
 266.422 181.266 266 195 266 210 c 0
 266 254 l 0
337 330 m 0
 511 330 l 0
 511 353 l 0
 511 377 511 401 500 425 c 0
 486 457 459 476 430 476 c 0
 401 476 376 458 359 433 c 0
 338 402 337 371 337 343 c 0
 337 330 l 0
EndSplineSet
EndChar

StartChar: oe
Encoding: 189 339 193
Width: 600
Flags: HMW
TeX: 111 0
LayerCount: 2
Fore
SplineSet
197 540 m 0
 240 540 280 521 305 487 c 0
 334 521 377 540 422 540 c 0
 476 540 536 512 562 440 c 0
 576.44 401.24 578.173 356.126 578.173 311.244 c 0
 578.173 297.07 578 282.92 578 269 c 0
 578 256 l 0
 314 256 l 0
 314 183 318 148 331 120 c 0
 351 73 394 54 437 54 c 0
 471 54 512 65 542 99 c 0
 583 49 l 0
 544 9 491 -12 435 -12 c 0
 387 -12 340 3 303 34 c 0
 272 5 230 -12 188 -12 c 0
 142 -12 84 10 49 81 c 0
 21 139 17 213 17 274 c 0
 17 327 21 390 50 444 c 0
 84 509 142 540 197 540 c 0
315 322 m 0
 509 322 l 0
 509 332 l 0
 509 335.238 509.009 338.503 509.009 341.787 c 0
 509.009 372.984 508.19 405.857 491 433 c 0
 474 463 443 477 413 477 c 0
 383 477 345 462 327 414 c 0
 325 407 315 377 315 322 c 0
87 285 m 0
 87 246 89 189 104 143 c 0
 123 80 164 58 198 58 c 0
 227 58 257 74 257 103 c 0
 257 118 242 173 242 274 c 0
 242 360 252 403 252 420 c 0
 252 450 227 470 196 470 c 0
 163 470 128 447 108 403 c 0
 89 363 87 318 87 285 c 0
EndSplineSet
EndChar

StartChar: acute.cap
Encoding: 278 -1 194
Width: 600
Flags: HMW
TeX: 78 0
LayerCount: 2
Fore
SplineSet
387 779 m 0
 433 698 l 0
 237 627 l 0
 210 675 l 0
 387 779 l 0
EndSplineSet
Validated: 1
EndChar

StartChar: grave.cap
Encoding: 277 -1 195
Width: 600
Flags: HMW
TeX: 78 0
LayerCount: 2
Fore
SplineSet
250 779 m 0
 427 675 l 0
 400 627 l 0
 204 698 l 0
 250 779 l 0
EndSplineSet
EndChar

StartChar: ordfeminine
Encoding: 170 170 196
Width: 600
Flags: HMW
TeX: 111 0
LayerCount: 2
Fore
SplineSet
152 656 m 0
 194 704 253 722 308 722 c 0
 371 722 424 696 448 645 c 0
 460 619 461 592 461 562 c 0
 461 309 l 0
 388 309 l 0
 388 348 l 0
 354 316 309 298 264 298 c 0
 184 298 128 355 128 419 c 0
 128 457 149 500 197 526 c 0
 239.824 549.059 290.785 551.093 339.274 551.093 c 0
 349.664 551.093 359.941 551 370 551 c 0
 387 551 l 0
 387 565 l 0
 387 585 387 605 374 625 c 0
 361 645 337 659 301 659 c 0
 260 659 218 644 192 608 c 0
 152 656 l 0
390 491 m 0
 371 491 l 0
 357.667 491 342.556 491.395 327.247 491.395 c 0
 308.111 491.395 288.667 490.778 272 488 c 0
 221 479 203 447 203 422 c 0
 203 390 231 361 276 361 c 0
 311 361 344 378 364 397 c 0
 389 420 390 444 390 471 c 0
 390 491 l 0
98 239 m 0
 503 239 l 0
 503 176 l 0
 98 176 l 0
 98 239 l 0
EndSplineSet
EndChar

StartChar: ordmasculine
Encoding: 186 186 197
Width: 600
Flags: HMW
TeX: 111 0
LayerCount: 2
Fore
SplineSet
302 722 m 0
 385 722 470 654 470 515 c 0
 470 365 379 297 295 297 c 0
 203 297 121 374 121 501 c 0
 121 634 206 722 302 722 c 0
191 506 m 0
 191 409 245 364 296 364 c 0
 346 364 401 406 401 506 c 0
 401 606 350 656 296 656 c 0
 243 656 191 606 191 506 c 0
98 239 m 0
 503 239 l 0
 503 176 l 0
 98 176 l 0
 98 239 l 0
EndSplineSet
EndChar

StartChar: uni02C9
Encoding: 263 713 198
Width: 600
Flags: HMW
TeX: 78 0
LayerCount: 2
Fore
SplineSet
153 722 m 0
 447 722 l 0
 447 655 l 0
 153 655 l 0
 153 722 l 0
EndSplineSet
EndChar

StartChar: cedilla
Encoding: 269 184 201
Width: 600
Flags: HMW
TeX: 78 0
LayerCount: 2
Fore
SplineSet
313 0 m 0
 363 0 l 0
 357 -56 l 0
 376 -56 l 0
 391 -56 406 -58 421 -65 c 0
 443 -76 455 -96 455 -119 c 0
 455 -160 414 -205 329 -205 c 0
 285 -205 235 -192 192 -162 c 0
 221 -114 l 0
 257 -143 301 -155 336 -155 c 0
 381 -155 389 -137 389 -127 c 0
 389 -120 385 -112 376 -107 c 0
 364 -99 347 -99 334 -99 c 0
 300 -99 l 0
 313 0 l 0
EndSplineSet
EndChar

StartChar: uni00B3
Encoding: 179 179 204
Width: 600
Flags: HMW
TeX: 117 0
LayerCount: 2
Fore
SplineSet
309 739 m 0
 395 739 460 681 460 615 c 0
 460 572 433 536 395 524 c 0
 444 515 480 473 480 425 c 0
 480 349 397 291 305 291 c 0
 242 291 182 318 140 366 c 0
 194 426 l 0
 204 415 199 404 210 394 c 0
 216 388 251 356 306 356 c 0
 363 356 408 390 408 431 c 0
 408 452 395 495 307 495 c 0
 295 495 283 493 272 493 c 0
 272 551 l 0
 280 550 287 550 295 550 c 0
 371 550 392 583 392 610 c 0
 392 644 357 678 305 678 c 0
 266 678 225 659 197 624 c 0
 155 667 l 0
 194 713 250 739 309 739 c 0
EndSplineSet
EndChar

StartChar: divide
Encoding: 247 247 205
Width: 600
Flags: HMW
TeX: 100 0
LayerCount: 2
Fore
SplineSet
92 403 m 0
 509 403 l 0
 509 326 l 0
 92 326 l 0
 92 403 l 0
358 541 m 0
 358 512 335 489 306 489 c 0
 277 489 254 512 254 541 c 0
 254 570 277 593 306 593 c 0
 335 593 358 570 358 541 c 0
358 184 m 0
 358 155 335 132 306 132 c 0
 277 132 254 155 254 184 c 0
 254 213 277 236 306 236 c 0
 335 236 358 213 358 184 c 0
EndSplineSet
EndChar

StartChar: Oslash
Encoding: 216 216 206
Width: 600
Flags: HMW
TeX: 79 0
LayerCount: 2
Fore
SplineSet
300 654 m 0
 224 654 124 588 124 373 c 0
 124 282 140 215 163 168 c 1
 400 612 l 1
 369 642 333 654 300 654 c 0
556 360 m 0
 556 296 551 206 513 129 c 0
 466 32 382 -12 304 -12 c 0
 262 -12 213 2 170 35 c 1
 112 -73 l 1
 52 -42 l 1
 120 85 l 1
 75 144 44 233 44 362 c 0
 44 646 196 730 304 730 c 0
 350 730 397 715 438 684 c 1
 491 784 l 1
 553 751 l 1
 489 631 l 1
 497 620 505 607 512 594 c 0
 551 517 556 427 556 360 c 0
444 547 m 1
 208 107 l 1
 239 79 273 68 305 68 c 0
 353 68 409 95 443 166 c 0
 472 228 475 302 475 349 c 0
 475 410 471 479 447 540 c 2
 444 547 l 1
EndSplineSet
EndChar

StartChar: multiply
Encoding: 215 215 207
Width: 600
Flags: HMW
TeX: 109 0
LayerCount: 2
Fore
SplineSet
453 583 m 1
 508 532 l 1
 358 377 l 1
 505 221 l 1
 451 168 l 1
 305 322 l 1
 160 173 l 1
 108 224 l 1
 254 376 l 1
 108 529 l 1
 163 583 l 1
 307 431 l 1
 453 583 l 1
EndSplineSet
EndChar

StartChar: AE
Encoding: 198 198 208
Width: 600
Flags: HMW
TeX: 65 0
LayerCount: 2
Fore
SplineSet
242 722 m 0
 571 722 l 0
 571 651 l 0
 370 651 l 0
 370 414 l 0
 541 414 l 0
 541 340 l 0
 373 340 l 0
 373 72 l 0
 568 72 l 0
 568 0 l 0
 302 0 l 0
 302 196 l 0
 151 196 l 0
 89 0 l 0
 15 0 l 0
 242 722 l 0
302 651 m 0
 289 651 l 0
 168 263 l 0
 302 263 l 0
 302 651 l 0
EndSplineSet
EndChar

StartChar: OE
Encoding: 188 338 209
Width: 600
Flags: HMW
TeX: 79 0
LayerCount: 2
Fore
SplineSet
303 690 m 0
 303 722 l 0
 571 722 l 0
 571 651 l 0
 375 651 l 0
 375 414 l 0
 541 414 l 0
 541 340 l 0
 375 340 l 0
 375 72 l 0
 568 72 l 0
 568 0 l 0
 302 0 l 0
 302 36 l 0
 279 8 244 -8 207 -8 c 0
 150 -8 80 31 47 139 c 0
 43 153 21 226 21 362 c 0
 21 459 29 543 60 616 c 0
 98 705 161 732 208 732 c 0
 244 732 278 717 303 690 c 0
95 376 m 0
 95 343 95 222 127 143 c 0
 153 79 191 63 217 63 c 0
 258 63 291 99 302 150 c 0
 302 562 l 0
 290 601 260 665 208 665 c 0
 174 665 139 636 118 573 c 0
 110 552 95 498 95 376 c 0
EndSplineSet
EndChar

StartChar: currency
Encoding: 280 164 210
Width: 600
Flags: HMWO
TeX: 78 0
LayerCount: 2
Fore
SplineSet
301 516 m 0
 237 516 184 464 184 400 c 0
 184 336 237 284 301 284 c 0
 365 284 417 336 417 400 c 0
 417 464 365 516 301 516 c 0
89 570 m 1
 130 611 l 1
 195 546 l 1
 225 567 262 580 301 580 c 0
 339 580 375 568 405 547 c 1
 469 611 l 1
 510 570 l 1
 446 506 l 1
 468 476 481 439 481 400 c 0
 481 361 468 324 447 295 c 1
 510 231 l 1
 469 190 l 1
 405 254 l 1
 376 232 340 220 301 220 c 0
 261 220 225 233 195 255 c 1
 130 190 l 1
 89 231 l 1
 154 296 l 1
 133 325 121 361 121 400 c 0
 121 439 133 475 154 504 c 1
 89 570 l 1
EndSplineSet
EndChar

StartChar: brokenbar
Encoding: 281 166 211
Width: 600
Flags: HMW
TeX: 78 0
LayerCount: 2
Fore
SplineSet
261 756 m 0
 339 756 l 0
 339 342 l 0
 261 342 l 0
 261 756 l 0
339 -175 m 0
 261 -175 l 0
 261 227 l 0
 339 227 l 0
 339 -175 l 0
EndSplineSet
Validated: 1
EndChar

StartChar: ogonek
Encoding: 270 731 214
Width: 600
Flags: HMW
TeX: 78 0
LayerCount: 2
Fore
SplineSet
422 0 m 0
 499 0 l 0
 460 -35 431 -67 422 -78 c 0
 413 -87 402 -101 402 -118 c 0
 402 -136 415 -151 436 -151 c 0
 443 -151 452 -149 464 -145 c 0
 482 -138 494 -130 501 -124 c 0
 501 -177 l 0
 478 -197 450 -204 421 -204 c 0
 361 -204 330 -172 330 -133 c 0
 330 -96 362 -50 422 0 c 0
EndSplineSet
EndChar

StartChar: dotaccent
Encoding: 265 729 222
Width: 600
Flags: HMW
TeX: 78 0
LayerCount: 2
Fore
SplineSet
305 760 m 0
 338 760 365 733 365 700 c 0
 365 668 338 641 305 641 c 0
 272 641 245 668 245 700 c 0
 245 733 272 760 305 760 c 0
EndSplineSet
EndChar

StartChar: breve
Encoding: 264 728 241
Width: 600
Flags: HMW
LayerCount: 2
Fore
SplineSet
169 749 m 0
 195 707 242 667 299 667 c 0
 348 667 397 697 437 748 c 0
 470 700 l 0
 431 647 370 607 299 607 c 0
 236 607 173 641 127 696 c 0
 169 749 l 0
EndSplineSet
EndChar

StartChar: eng
Encoding: 332 331 242
Width: 600
Flags: HMW
LayerCount: 2
Fore
SplineSet
89 0 m 0
 89 529 l 0
 174 529 l 0
 174 436 l 0
 213 495 278 542 350 542 c 0
 410 542 465 508 491 449 c 0
 510 406 510 362 510 321 c 0
 510 65 l 0
 510 17 510 -32 489 -81 c 0
 457 -161 387 -204 314 -204 c 0
 273 -204 233 -190 201 -165 c 0
 241 -87 l 0
 249 -89 248 -98 251 -102 c 0
 254 -106 280 -126 316 -126 c 0
 348 -126 381 -110 403 -77 c 0
 428 -37 428 11 428 52 c 0
 428 319 l 0
 428 356 428 402 399 436 c 0
 380 459 354 470 327 470 c 0
 271 470 220 423 200 396 c 0
 178 367 174 341 174 305 c 0
 174 0 l 0
 89 0 l 0
EndSplineSet
EndChar

StartChar: dcaron
Encoding: 312 271 245
Width: 600
Flags: HMW
LayerCount: 2
Fore
SplineSet
368 452 m 0
 368 770 l 0
 447 770 l 0
 447 49 l 0
 447 33 448 16 452 0 c 0
 369 0 l 0
 365 13 364 26 364 39 c 0
 364 85 l 0
 332 29 274 -12 209 -12 c 0
 98 -12 10 106 10 269 c 0
 10 444 113 543 220 543 c 0
 284 543 341 508 368 452 c 0
224 475 m 0
 149 475 91 393 91 279 c 0
 91 171 142 62 228 62 c 0
 274 62 314 94 335 130 c 0
 358 167 361 207 361 255 c 0
 361 326 360 363 344 397 c 0
 321 446 267 475 224 475 c 0
EndSplineSet
Refer: 56 8217 N 0.8 0 0 0.8 306.515 186.393 2
EndChar

StartChar: eogonek
Encoding: 313 281 246
Width: 600
Flags: HMW
LayerCount: 2
Fore
SplineSet
310 542 m 0
 397 542 496 496 519 353 c 0
 522.6 334.4 523.32 315.08 523.32 294.824 c 0
 523.32 281.32 523 267.4 523 253 c 1
 147 253 l 1
 147 94 256 55 327 55 c 0
 380 55 429 76 464 115 c 1
 510 70 l 1
 469 19 l 2
 429 -31 397 -68 397 -102 c 0
 397 -128 416 -147 442 -147 c 0
 448 -147 468 -146 501 -125 c 1
 501 -182 l 1
 479 -194 451 -203 424 -203 c 0
 366 -203 328 -164 328 -117 c 0
 328 -82 349 -40 392 0 c 1
 366 -7 340 -12 313 -12 c 0
 174 -12 66 87 66 261 c 0
 66 452 184 542 310 542 c 0
150 317 m 1
 441 317 l 1
 441.721 323.201 442.073 329.345 442.073 335.408 c 0
 442.073 413.426 383.799 478 304 478 c 0
 247 478 166 442 150 317 c 1
EndSplineSet
EndChar

StartChar: dotlessj
Encoding: 331 567 259
Width: 600
Flags: HMW
LayerCount: 2
Fore
SplineSet
156 529 m 0
 437 529 l 0
 437 37 l 0
 437 -9 436 -52 413 -96 c 0
 377 -167 303 -202 228 -202 c 0
 162 -202 104 -175 66 -128 c 0
 120 -56 l 0
 127 -62 125 -69 130 -77 c 0
 134 -84 169 -130 233 -130 c 0
 278 -130 320 -106 339 -63 c 0
 352 -35 353 -7 353 21 c 0
 353 461 l 0
 156 461 l 0
 156 529 l 0
EndSplineSet
EndChar

StartChar: kgreenlandic
Encoding: 330 312 260
Width: 600
Flags: HMW
LayerCount: 2
Fore
SplineSet
87 529 m 0
 182 529 l 0
 182 528 182 529 182 529 c 0
 182 522 178 515 175 512 c 0
 171 507 171 503 171 499 c 0
 171 286 l 0
 436 532 l 0
 457 527 478 526 498 526 c 0
 528 526 l 0
 305 316 l 0
 565 0 l 0
 562 0 560 0 557 0 c 0
 501 0 457 -5 457 -5 c 0
 241 265 l 0
 171 200 l 0
 171 0 l 0
 87 0 l 0
 87 529 l 0
EndSplineSet
EndChar

StartChar: uparrow
Encoding: 338 8593 266
Width: 600
Flags: HMW
LayerCount: 2
Fore
SplineSet
78 468 m 1
 295 742 l 1
 320 742 l 1
 521 466 l 1
 463 427 l 1
 340 594 l 1
 340 -39 l 1
 263 -39 l 1
 263 594 l 1
 128 427 l 1
 78 468 l 1
EndSplineSet
EndChar

StartChar: uni2423
Encoding: 340 9251 268
Width: 600
Flags: HMW
LayerCount: 2
Fore
SplineSet
66 81 m 0
 120 81 l 0
 120 -24 l 0
 478 -24 l 0
 478 81 l 0
 534 81 l 0
 534 -76 l 0
 66 -76 l 0
 66 81 l 0
EndSplineSet
Validated: 1
EndChar

StartChar: r.serif
Encoding: 341 -1 269
Width: 600
Flags: HMW
LayerCount: 2
Fore
SplineSet
85 529 m 0
 244 529 l 0
 244 427 l 0
 277 493 340 541 416 541 c 0
 466 541 515 521 553 484 c 0
 514 404 l 0
 506 412 502 421 495 429 c 0
 481 448 453 470 411 470 c 0
 372 470 325 449 283 390 c 0
 241 331 241 296 241 267 c 0
 241 62 l 0
 352 62 l 0
 352 0 l 0
 83 0 l 0
 83 62 l 0
 158 62 l 0
 158 462 l 0
 85 462 l 0
 85 529 l 0
EndSplineSet
EndChar

StartChar: hungarumlaut.cap
Encoding: 343 -1 270
Width: 600
Flags: HMW
LayerCount: 2
Fore
SplineSet
486 939 m 0
 540 864 l 0
 371 747 l 0
 334 795 l 0
 486 939 l 0
280 939 m 0
 334 864 l 0
 165 747 l 0
 128 795 l 0
 280 939 l 0
EndSplineSet
Validated: 1
EndChar

StartChar: uni2074
Encoding: 344 8308 271
Width: 600
Flags: HMW
LayerCount: 2
Fore
SplineSet
360 743 m 0
 405 743 l 0
 405 459 l 0
 478 459 l 0
 478 404 l 0
 405 404 l 0
 405 292 l 0
 339 292 l 0
 339 405 l 0
 128 405 l 0
 128 446 l 0
 360 743 l 0
340 630 m 0
 204 459 l 0
 340 459 l 0
 340 630 l 0
EndSplineSet
Validated: 1
EndChar

StartChar: fraction
Encoding: 345 8260 274
Width: 600
Flags: HMW
LayerCount: 2
Fore
SplineSet
98 -19 m 25
 461 770 l 25
 516 739 l 25
 152 -49 l 25
 98 -19 l 25
EndSplineSet
Validated: 1
EndChar

StartChar: lslash
Encoding: 327 322 275
Width: 600
Flags: HMW
LayerCount: 2
Fore
SplineSet
108 770 m 1
 342 770 l 1
 342 429 l 1
 417 455 l 2
 429 459 437 464 448 472 c 1
 448 387 l 1
 342 351 l 1
 342 67 l 1
 498 67 l 1
 498 0 l 1
 101 0 l 1
 101 67 l 1
 258 67 l 1
 258 323 l 1
 167 292 l 1
 167 368 l 1
 258 400 l 1
 258 703 l 1
 108 703 l 1
 108 770 l 1
EndSplineSet
EndChar

StartChar: Lslash
Encoding: 286 321 276
Width: 600
Flags: HMW
LayerCount: 2
Fore
SplineSet
95 722 m 1
 189 722 l 1
 189 721 189 720 189 719 c 0
 189 704 179 701 179 683 c 2
 179 381 l 1
 371 443 l 2
 381 446 390 449 401 454 c 1
 401 380 l 1
 179 309 l 1
 179 69 l 1
 527 69 l 1
 527 0 l 1
 95 0 l 1
 95 282 l 1
 33 262 l 1
 33 333 l 1
 95 353 l 1
 95 722 l 1
EndSplineSet
EndChar

StartChar: Eng
Encoding: 346 330 277
Width: 600
Flags: HMW
LayerCount: 2
Fore
SplineSet
69 0 m 0
 69 722 l 0
 154 722 l 0
 154 628 l 0
 195 692 266 735 342 735 c 0
 413 735 477 697 508 629 c 0
 529 583 530 537 530 491 c 0
 530 491 l 0
 530 203 l 0
 530 163 529 123 510 83 c 0
 482 22 422 -12 355 -12 c 0
 319 -12 284 -3 253 16 c 0
 294 88 l 0
 301 84 302 78 306 75 c 0
 309 73 330 60 357 60 c 0
 390 60 420 78 435 111 c 0
 448 138 448 170 448 197 c 0
 448 489 l 0
 448 523 448 562 430 597 c 0
 410 639 371 662 327 662 c 0
 265 662 206 613 180 577 c 0
 158 545 154 516 154 478 c 0
 154 0 l 0
 69 0 l 0
EndSplineSet
EndChar

StartChar: dcroat
Encoding: 347 273 278
Width: 600
Flags: HMW
LayerCount: 2
Fore
SplineSet
281 475 m 0
 220 475 135 433 135 283 c 0
 135 108 224 62 284 62 c 0
 339 62 394 99 414 162 c 0
 423 189 425 219 425 259 c 0
 425 318 423 347 416 372 c 0
 395 450 327 475 281 475 c 0
510 630 m 1
 510 49 l 2
 510 33 512 16 516 0 c 1
 433 0 l 1
 429 13 428 26 428 39 c 2
 428 85 l 1
 395 26 332 -12 265 -12 c 0
 162 -12 54 74 54 269 c 0
 54 471 176 543 277 543 c 0
 350 543 407 506 432 452 c 1
 432 630 l 1
 344 630 l 1
 344 692 l 1
 432 692 l 1
 432 770 l 1
 521 770 l 1
 521 762 517 757 515 754 c 0
 511 747 510 744 510 738 c 2
 510 692 l 1
 561 692 l 1
 561 630 l 1
 510 630 l 1
EndSplineSet
EndChar

StartChar: bullet
Encoding: 353 8226 287
Width: 600
Flags: HMW
LayerCount: 2
Fore
SplineSet
405 343 m 0
 405 290 361 247 306 247 c 0
 252 247 208 290 208 344 c 0
 208 397 252 440 306 440 c 0
 361 440 405 397 405 343 c 0
EndSplineSet
EndChar

StartChar: florin
Encoding: 354 402 288
Width: 600
Flags: HMW
LayerCount: 2
Fore
SplineSet
566 719 m 1
 528 642 l 1
 524 642 520 644 518 651 c 0
 518 655 518 659 515 665 c 0
 505 688 476 714 438 714 c 0
 409 714 376 698 357 656 c 0
 340 620 336 575 336 539 c 1
 336 444 l 1
 471 444 l 1
 471 378 l 1
 323 378 l 1
 323 28 l 1
 323 -24 285 -74 257 -120 c 0
 224 -177 173 -203 125 -203 c 0
 89 -203 55 -188 31 -162 c 1
 78 -88 l 1
 85 -91 87 -98 90 -103 c 0
 97 -113 111 -125 132 -125 c 0
 151 -125 174 -115 191 -83 c 0
 211 -48 243 -4 243 31 c 1
 243 378 l 1
 103 378 l 1
 103 444 l 1
 256 444 l 1
 256 550 l 1
 256 594 263 639 285 682 c 0
 317 746 376 780 437 780 c 0
 486 780 534 758 566 719 c 1
EndSplineSet
EndChar

StartChar: dagger
Encoding: 355 8224 289
Width: 600
Flags: HMW
LayerCount: 2
Fore
SplineSet
261 756 m 1
 339 756 l 1
 339 529 l 1
 531 529 l 1
 531 460 l 1
 339 460 l 1
 339 -175 l 1
 261 -175 l 1
 261 460 l 1
 67 460 l 1
 67 529 l 1
 261 529 l 1
 261 756 l 1
EndSplineSet
Validated: 1
EndChar

StartChar: daggerdbl
Encoding: 356 8225 290
Width: 600
Flags: HMW
LayerCount: 2
Fore
SplineSet
261 756 m 1
 339 756 l 1
 339 529 l 1
 531 529 l 1
 531 460 l 1
 339 460 l 1
 339 140 l 1
 531 140 l 1
 531 71 l 1
 339 71 l 1
 339 -175 l 1
 261 -175 l 1
 261 71 l 1
 67 71 l 1
 67 140 l 1
 261 140 l 1
 261 460 l 1
 67 460 l 1
 67 529 l 1
 261 529 l 1
 261 756 l 1
EndSplineSet
Validated: 1
EndChar

StartChar: trademark
Encoding: 357 8482 291
Width: 600
VWidth: 1157
Flags: HMW
LayerCount: 2
Fore
SplineSet
287 735 m 1
 287 689 l 1
 182 689 l 1
 182 371 l 1
 130 371 l 1
 130 689 l 1
 31 689 l 1
 31 735 l 1
 287 735 l 1
361 735 m 1
 444 567 l 1
 466 609 466 609 487 651 c 128
 509 694 509 694 531 735 c 1
 569 735 l 1
 569 371 l 1
 520 371 l 1
 520 620 l 1
 503 588 503 588 485 556 c 128
 467 525 467 525 451 494 c 1
 432 496 l 1
 369 620 l 1
 369 371 l 1
 320 371 l 1
 320 735 l 1
 361 735 l 1
EndSplineSet
EndChar

StartChar: zero.noslash
Encoding: 358 -1 292
Width: 600
Flags: HWO
HStem: -13 74<244.756 360.331> 656 71<242.651 355.905>
VStem: 83 77<194.48 519.458> 442 75<189.084 513.036>
LayerCount: 2
Fore
SplineSet
517 358 m 0
 517 138 424 -13 298 -13 c 0
 183 -13 83 113 83 341 c 0
 83 575 173 727 300 727 c 0
 421 727 517 585 517 358 c 0
299 656 m 0
 274 656 231 644 201 580 c 0
 178 528 160 454 160 352 c 0
 160 278 175 200 195 154 c 0
 227 77 272 61 303 61 c 0
 329 61 369 73 400 130 c 0
 433 191 442 284 442 343 c 0
 442 420 426 515 403 568 c 0
 372 642 328 656 299 656 c 0
EndSplineSet
EndChar

